<svg xml:space="preserve" style="max-height: 500px" viewBox="12.799974400000002 16.8 467.99906400000003 377" y="0px" x="0px" xmlns:xlink="http://www.w3.org/1999/xlink" xmlns="http://www.w3.org/2000/svg" version="1.1" width="467.99906400000003" height="377">
<g id="BACKGROUND">
	<rect height="500" width="500" style="fill:#FFFFFF;" y="0" x="0"/>
</g>
<g id="OBJECTS">
	<ellipse ry="109.42" rx="189.521" cy="260.746" cx="252.839" style="fill:#E9F0F6;"/>
	<text style="fill:#1E3358; font-family:'Raleway-Bold'; font-size:30.2573px;" transform="matrix(1 0 0 1 125.584 429.9462)">Online education</text>
	<path d="M390.394,272.238L280.29,335.806c-2.077,1.199-4.636,1.199-6.714,0l-26.131-15.087l123.507-71.307&#10;&#9;&#9;l19.441,11.224C394.859,263.215,394.859,269.66,390.394,272.238z" style="fill:#C4DFF8;"/>
	<path d="M421.528,324.328l-73.382,42.367c-1.384,0.799-3.09,0.799-4.474,0l-17.416-10.055l82.316-47.525&#10;&#9;&#9;l12.957,7.481C424.504,318.314,424.504,322.61,421.528,324.328z" style="fill:#C4DFF8;"/>
	<g>
		<polygon points="227.472,70.896 230.919,69.027 231.944,70.584 228.303,72.329" style="fill:#EAAA2F;"/>
		<polygon points="369.753,262.682 366.428,264.495 366.037,261.832 369.468,259.917" style="fill:#EAAA2F;"/>
		<g>
			<path d="M367.108,262.45l-133.767-77.23c-2.257-1.303-4.087-4.799-4.087-7.808V72.455&#10;&#9;&#9;&#9;&#9;c0-3.009,1.83-4.393,4.087-3.09l133.767,77.23c2.257,1.303,4.087,4.799,4.087,7.809v104.957&#10;&#9;&#9;&#9;&#9;C371.195,262.37,369.365,263.753,367.108,262.45z" style="fill:#EAAA2F;"/>
		</g>
		<g>
			<path d="M363.77,264.271l-133.767-77.23c-2.257-1.303-4.087-4.799-4.087-7.809V74.275&#10;&#9;&#9;&#9;&#9;c0-3.009,1.83-4.393,4.087-3.09l133.767,77.23c2.257,1.303,4.087,4.799,4.087,7.808v104.957&#10;&#9;&#9;&#9;&#9;C367.857,264.191,366.027,265.574,363.77,264.271z" style="fill:#3F6ECB;"/>
			<path d="M232.223,175.591V85.199c0-3.009,1.83-4.393,4.087-3.09l121.154,69.948&#10;&#9;&#9;&#9;&#9;c2.257,1.303,4.087,4.799,4.087,7.808v90.393c0,3.009-1.83,4.393-4.087,3.089L236.31,183.399&#10;&#9;&#9;&#9;&#9;C234.053,182.096,232.223,178.6,232.223,175.591z" style="fill:#6FA4F4;"/>
		</g>
		<rect height="7.585" width="13.963" style="fill:#3C69BB;" y="244.139" x="130.71"/>
		<rect height="7.908" width="8.705" style="fill:#3C69BB;" y="267.673" x="359.152"/>
		<g>
			<path d="M266.001,331.11l-133.767-77.23c-2.257-1.303-1.974-3.579,0.632-5.084l90.895-52.478&#10;&#9;&#9;&#9;&#9;c2.606-1.505,6.549-1.668,8.806-0.365l133.767,77.23c2.257,1.303,1.974,3.579-0.632,5.084l-90.895,52.478&#10;&#9;&#9;&#9;&#9;C272.2,332.25,268.258,332.413,266.001,331.11z" style="fill:#3C69BB;"/>
		</g>
		<g>
			<path d="M266.001,323.626l-133.767-77.23c-2.257-1.303-1.974-3.579,0.632-5.084l90.895-52.478&#10;&#9;&#9;&#9;&#9;c2.606-1.505,6.549-1.668,8.806-0.365l133.767,77.23c2.257,1.303,1.974,3.579-0.632,5.084l-90.895,52.478&#10;&#9;&#9;&#9;&#9;C272.2,324.765,268.258,324.929,266.001,323.626z" style="fill:#3F6ECB;"/>
			<path d="M176.153,223.602l48.553-28.032c2.084-1.203,5.237-1.334,7.042-0.292l122.791,70.893&#10;&#9;&#9;&#9;&#9;c1.805,1.042,1.579,2.862-0.506,4.066l-48.553,28.032c-2.084,1.203-5.237,1.334-7.042,0.292l-122.791-70.893&#10;&#9;&#9;&#9;&#9;C173.842,226.625,174.069,224.805,176.153,223.602z" style="fill:#6FA4F4;"/>
			<path d="M187.955,266.7l18.774-10.84c2.144-1.238,5.388-1.372,7.245-0.3l36.152,20.872&#10;&#9;&#9;&#9;&#9;c1.857,1.072,1.624,2.945-0.52,4.183l-18.774,10.84c-2.144,1.238-5.388,1.372-7.245,0.3l-36.152-20.872&#10;&#9;&#9;&#9;&#9;C185.578,269.81,185.811,267.938,187.955,266.7z" style="fill:#6FA4F4;"/>
			<g>
				<path d="M231.008,206.532l-8.382-4.84c-0.907-0.524-0.907-1.373,0-1.896l4.27-2.465&#10;&#9;&#9;&#9;&#9;&#9;c0.907-0.524,2.378-0.524,3.285,0l8.383,4.84c0.907,0.524,0.907,1.373,0,1.896l-4.27,2.465&#10;&#9;&#9;&#9;&#9;&#9;C233.386,207.055,231.915,207.055,231.008,206.532z" style="fill:#3F6ECB;"/>
				<path d="M245.058,214.644l-8.383-4.84c-0.907-0.524-0.907-1.373,0-1.896l4.27-2.465&#10;&#9;&#9;&#9;&#9;&#9;c0.907-0.524,2.378-0.524,3.285,0l8.383,4.84c0.907,0.524,0.907,1.373,0,1.896l-4.27,2.465&#10;&#9;&#9;&#9;&#9;&#9;C247.436,215.167,245.965,215.167,245.058,214.644z" style="fill:#3F6ECB;"/>
				<path d="M259.108,222.755l-8.383-4.84c-0.907-0.524-0.907-1.373,0-1.896l4.27-2.465&#10;&#9;&#9;&#9;&#9;&#9;c0.907-0.524,2.378-0.524,3.285,0l8.383,4.84c0.907,0.524,0.907,1.373,0,1.896l-4.27,2.465&#10;&#9;&#9;&#9;&#9;&#9;C261.486,223.279,260.015,223.279,259.108,222.755z" style="fill:#3F6ECB;"/>
				<path d="M273.158,230.867l-8.383-4.84c-0.907-0.524-0.907-1.373,0-1.896l4.27-2.465&#10;&#9;&#9;&#9;&#9;&#9;c0.907-0.524,2.378-0.524,3.285,0l8.383,4.84c0.907,0.524,0.907,1.373,0,1.896l-4.27,2.465&#10;&#9;&#9;&#9;&#9;&#9;C275.535,231.391,274.065,231.391,273.158,230.867z" style="fill:#3F6ECB;"/>
				<path d="M287.208,238.979l-8.382-4.84c-0.907-0.524-0.907-1.373,0-1.896l4.27-2.465&#10;&#9;&#9;&#9;&#9;&#9;c0.907-0.524,2.378-0.524,3.284,0l8.383,4.84c0.907,0.524,0.907,1.373,0,1.896l-4.27,2.465&#10;&#9;&#9;&#9;&#9;&#9;C289.585,239.503,288.115,239.503,287.208,238.979z" style="fill:#3F6ECB;"/>
				<path d="M301.258,247.09l-8.383-4.84c-0.907-0.524-0.907-1.373,0-1.896l4.27-2.465&#10;&#9;&#9;&#9;&#9;&#9;c0.907-0.524,2.378-0.524,3.285,0l8.383,4.84c0.907,0.524,0.907,1.373,0,1.896l-4.27,2.465&#10;&#9;&#9;&#9;&#9;&#9;C303.635,247.614,302.165,247.614,301.258,247.09z" style="fill:#3F6ECB;"/>
				<path d="M315.308,255.202l-8.382-4.84c-0.907-0.524-0.907-1.373,0-1.896l4.27-2.465&#10;&#9;&#9;&#9;&#9;&#9;c0.907-0.524,2.378-0.524,3.285,0l8.382,4.84c0.907,0.524,0.907,1.373,0,1.896l-4.27,2.465&#10;&#9;&#9;&#9;&#9;&#9;C317.685,255.726,316.215,255.726,315.308,255.202z" style="fill:#3F6ECB;"/>
				<path d="M329.358,263.314l-8.382-4.84c-0.907-0.524-0.907-1.373,0-1.896l4.27-2.465&#10;&#9;&#9;&#9;&#9;&#9;c0.907-0.524,2.378-0.524,3.285,0l8.383,4.84c0.907,0.524,0.907,1.373,0,1.896l-4.27,2.465&#10;&#9;&#9;&#9;&#9;&#9;C331.735,263.838,330.265,263.838,329.358,263.314z" style="fill:#3F6ECB;"/>
				<path d="M343.408,271.426l-8.383-4.84c-0.907-0.524-0.907-1.373,0-1.896l4.27-2.465&#10;&#9;&#9;&#9;&#9;&#9;c0.907-0.524,2.378-0.524,3.285,0l8.383,4.84c0.907,0.524,0.907,1.373,0,1.896l-4.27,2.465&#10;&#9;&#9;&#9;&#9;&#9;C345.785,271.949,344.315,271.949,343.408,271.426z" style="fill:#3F6ECB;"/>
			</g>
			<g>
				<path d="M227.756,216.146l-15.083-8.708c-0.907-0.524-0.907-1.373,0-1.896l4.27-2.465&#10;&#9;&#9;&#9;&#9;&#9;c0.907-0.524,2.378-0.524,3.285,0l15.083,8.708c0.907,0.524,0.907,1.373,0,1.896l-4.27,2.465&#10;&#9;&#9;&#9;&#9;&#9;C230.134,216.67,228.663,216.67,227.756,216.146z" style="fill:#3F6ECB;"/>
				<path d="M241.806,224.258l-8.382-4.84c-0.907-0.524-0.907-1.373,0-1.896l4.27-2.465&#10;&#9;&#9;&#9;&#9;&#9;c0.907-0.524,2.378-0.524,3.285,0l8.383,4.84c0.907,0.524,0.907,1.373,0,1.896l-4.27,2.465&#10;&#9;&#9;&#9;&#9;&#9;C244.184,224.782,242.713,224.782,241.806,224.258z" style="fill:#3F6ECB;"/>
				<path d="M255.856,232.37l-8.382-4.84c-0.907-0.524-0.907-1.373,0-1.896l4.27-2.465&#10;&#9;&#9;&#9;&#9;&#9;c0.907-0.524,2.377-0.524,3.285,0l8.383,4.84c0.907,0.524,0.907,1.373,0,1.896l-4.27,2.465&#10;&#9;&#9;&#9;&#9;&#9;C258.234,232.893,256.763,232.893,255.856,232.37z" style="fill:#3F6ECB;"/>
				<path d="M269.906,240.482l-8.383-4.84c-0.907-0.524-0.907-1.373,0-1.896l4.27-2.465&#10;&#9;&#9;&#9;&#9;&#9;c0.907-0.524,2.378-0.524,3.285,0l8.383,4.84c0.907,0.524,0.907,1.373,0,1.896l-4.27,2.465&#10;&#9;&#9;&#9;&#9;&#9;C272.284,241.005,270.813,241.005,269.906,240.482z" style="fill:#3F6ECB;"/>
				<path d="M283.956,248.593l-8.383-4.84c-0.907-0.524-0.907-1.373,0-1.896l4.27-2.465&#10;&#9;&#9;&#9;&#9;&#9;c0.907-0.524,2.378-0.524,3.284,0l8.383,4.84c0.907,0.524,0.907,1.373,0,1.896l-4.27,2.465&#10;&#9;&#9;&#9;&#9;&#9;C286.334,249.117,284.863,249.117,283.956,248.593z" style="fill:#3F6ECB;"/>
				<path d="M298.006,256.705l-8.383-4.84c-0.907-0.524-0.907-1.373,0-1.896l4.27-2.465&#10;&#9;&#9;&#9;&#9;&#9;c0.907-0.524,2.378-0.524,3.285,0l8.382,4.84c0.907,0.524,0.907,1.373,0,1.896l-4.27,2.465&#10;&#9;&#9;&#9;&#9;&#9;C300.384,257.229,298.913,257.229,298.006,256.705z" style="fill:#3F6ECB;"/>
				<path d="M312.056,264.817l-8.383-4.84c-0.907-0.524-0.907-1.373,0-1.896l4.27-2.465&#10;&#9;&#9;&#9;&#9;&#9;c0.907-0.524,2.378-0.524,3.285,0l8.382,4.84c0.907,0.524,0.907,1.373,0,1.896l-4.27,2.465&#10;&#9;&#9;&#9;&#9;&#9;C314.434,265.34,312.963,265.34,312.056,264.817z" style="fill:#3F6ECB;"/>
				<path d="M333.455,277.172l-15.391-8.886c-0.907-0.524-0.907-1.373,0-1.896l4.27-2.465&#10;&#9;&#9;&#9;&#9;&#9;c0.907-0.524,2.378-0.524,3.285,0l15.391,8.886c0.907,0.524,0.907,1.373,0,1.896l-4.27,2.465&#10;&#9;&#9;&#9;&#9;&#9;C335.833,277.695,334.362,277.695,333.455,277.172z" style="fill:#3F6ECB;"/>
			</g>
			<g>
				<path d="M207.852,227.638l-15.083-8.708c-0.907-0.524-0.907-1.373,0-1.896l4.27-2.465&#10;&#9;&#9;&#9;&#9;&#9;c0.907-0.524,2.378-0.524,3.285,0l15.083,8.708c0.907,0.524,0.907,1.373,0,1.896l-4.27,2.465&#10;&#9;&#9;&#9;&#9;&#9;C210.229,228.162,208.759,228.162,207.852,227.638z" style="fill:#3F6ECB;"/>
				<path d="M221.902,235.75l-8.382-4.84c-0.907-0.524-0.907-1.373,0-1.896l4.27-2.465&#10;&#9;&#9;&#9;&#9;&#9;c0.907-0.524,2.378-0.524,3.285,0l8.383,4.84c0.907,0.524,0.907,1.373,0,1.896l-4.27,2.465&#10;&#9;&#9;&#9;&#9;&#9;C224.279,236.274,222.809,236.274,221.902,235.75z" style="fill:#3F6ECB;"/>
				<path d="M235.952,243.862l-8.382-4.84c-0.907-0.524-0.907-1.373,0-1.896l4.27-2.465&#10;&#9;&#9;&#9;&#9;&#9;c0.907-0.524,2.378-0.524,3.285,0l8.383,4.84c0.907,0.524,0.907,1.373,0,1.896l-4.27,2.465&#10;&#9;&#9;&#9;&#9;&#9;C238.329,244.385,236.859,244.385,235.952,243.862z" style="fill:#3F6ECB;"/>
				<path d="M250.002,251.973l-8.383-4.84c-0.907-0.524-0.907-1.373,0-1.896l4.27-2.465&#10;&#9;&#9;&#9;&#9;&#9;c0.907-0.524,2.378-0.524,3.285,0l8.382,4.84c0.907,0.524,0.907,1.373,0,1.896l-4.27,2.465&#10;&#9;&#9;&#9;&#9;&#9;C252.379,252.497,250.909,252.497,250.002,251.973z" style="fill:#3F6ECB;"/>
				<path d="M264.051,260.085l-8.382-4.84c-0.907-0.524-0.907-1.373,0-1.896l4.27-2.465&#10;&#9;&#9;&#9;&#9;&#9;c0.907-0.524,2.378-0.524,3.285,0l8.382,4.84c0.907,0.524,0.907,1.373,0,1.896l-4.27,2.465&#10;&#9;&#9;&#9;&#9;&#9;C266.429,260.609,264.959,260.609,264.051,260.085z" style="fill:#3F6ECB;"/>
				<path d="M278.102,268.197l-8.383-4.84c-0.907-0.524-0.907-1.373,0-1.896l4.27-2.465&#10;&#9;&#9;&#9;&#9;&#9;c0.907-0.524,2.378-0.524,3.285,0l8.383,4.84c0.907,0.524,0.907,1.373,0,1.896l-4.27,2.465&#10;&#9;&#9;&#9;&#9;&#9;C280.479,268.721,279.009,268.721,278.102,268.197z" style="fill:#3F6ECB;"/>
				<path d="M292.151,276.309l-8.383-4.84c-0.907-0.524-0.907-1.373,0-1.896l4.27-2.465&#10;&#9;&#9;&#9;&#9;&#9;c0.907-0.524,2.377-0.524,3.285,0l8.383,4.84c0.907,0.524,0.907,1.373,0,1.896l-4.27,2.465&#10;&#9;&#9;&#9;&#9;&#9;C294.529,276.832,293.059,276.832,292.151,276.309z" style="fill:#3F6ECB;"/>
				<path d="M313.551,288.664l-15.391-8.886c-0.907-0.524-0.907-1.373,0-1.896l4.27-2.465&#10;&#9;&#9;&#9;&#9;&#9;c0.907-0.524,2.378-0.524,3.285,0l15.391,8.886c0.907,0.524,0.907,1.373,0,1.896l-4.27,2.465&#10;&#9;&#9;&#9;&#9;&#9;C315.928,289.187,314.458,289.187,313.551,288.664z" style="fill:#3F6ECB;"/>
			</g>
			<g>
				<path d="M211.104,218.024l-8.383-4.84c-0.907-0.524-0.907-1.373,0-1.896l4.27-2.465&#10;&#9;&#9;&#9;&#9;&#9;c0.907-0.524,2.378-0.524,3.285,0l8.382,4.84c0.907,0.524,0.907,1.373,0,1.896l-4.27,2.465&#10;&#9;&#9;&#9;&#9;&#9;C213.481,218.547,212.01,218.547,211.104,218.024z" style="fill:#3F6ECB;"/>
				<path d="M225.153,226.135l-8.382-4.84c-0.907-0.524-0.907-1.373,0-1.896l4.27-2.465&#10;&#9;&#9;&#9;&#9;&#9;c0.907-0.524,2.378-0.524,3.285,0l8.382,4.84c0.907,0.524,0.907,1.373,0,1.896l-4.27,2.465&#10;&#9;&#9;&#9;&#9;&#9;C227.531,226.659,226.06,226.659,225.153,226.135z" style="fill:#3F6ECB;"/>
				<path d="M239.203,234.247l-8.382-4.84c-0.907-0.524-0.907-1.373,0-1.896l4.27-2.465&#10;&#9;&#9;&#9;&#9;&#9;c0.907-0.524,2.378-0.524,3.285,0l8.383,4.84c0.907,0.524,0.907,1.373,0,1.896l-4.27,2.465&#10;&#9;&#9;&#9;&#9;&#9;C241.581,234.771,240.11,234.771,239.203,234.247z" style="fill:#3F6ECB;"/>
				<path d="M253.253,242.359l-8.383-4.84c-0.907-0.524-0.907-1.373,0-1.896l4.27-2.465&#10;&#9;&#9;&#9;&#9;&#9;c0.907-0.524,2.378-0.524,3.285,0l8.383,4.84c0.907,0.524,0.907,1.373,0,1.896l-4.27,2.465&#10;&#9;&#9;&#9;&#9;&#9;C255.631,242.883,254.16,242.883,253.253,242.359z" style="fill:#3F6ECB;"/>
				<path d="M267.303,250.471l-8.383-4.84c-0.907-0.524-0.907-1.373,0-1.896l4.27-2.465&#10;&#9;&#9;&#9;&#9;&#9;c0.907-0.524,2.378-0.524,3.285,0l8.383,4.84c0.907,0.524,0.907,1.373,0,1.896l-4.27,2.465&#10;&#9;&#9;&#9;&#9;&#9;C269.681,250.994,268.21,250.994,267.303,250.471z" style="fill:#3F6ECB;"/>
				<path d="M281.353,258.582l-8.382-4.84c-0.907-0.524-0.907-1.373,0-1.896l4.27-2.465&#10;&#9;&#9;&#9;&#9;&#9;c0.907-0.524,2.378-0.524,3.285,0l8.383,4.84c0.907,0.524,0.907,1.373,0,1.896l-4.27,2.465&#10;&#9;&#9;&#9;&#9;&#9;C283.731,259.106,282.26,259.106,281.353,258.582z" style="fill:#3F6ECB;"/>
				<path d="M295.403,266.694l-8.383-4.84c-0.907-0.524-0.907-1.373,0-1.896l4.27-2.465&#10;&#9;&#9;&#9;&#9;&#9;c0.907-0.524,2.378-0.524,3.285,0l8.383,4.84c0.907,0.524,0.907,1.373,0,1.896l-4.27,2.465&#10;&#9;&#9;&#9;&#9;&#9;C297.781,267.218,296.31,267.218,295.403,266.694z" style="fill:#3F6ECB;"/>
				<path d="M323.503,282.918l-22.338-12.897c-0.907-0.524-0.907-1.373,0-1.896l4.27-2.465&#10;&#9;&#9;&#9;&#9;&#9;c0.907-0.524,2.378-0.524,3.284,0l22.339,12.897c0.907,0.524,0.907,1.373,0,1.896l-4.27,2.465&#10;&#9;&#9;&#9;&#9;&#9;C325.881,283.441,324.41,283.441,323.503,282.918z" style="fill:#3F6ECB;"/>
			</g>
			<g>
				<path d="M191.199,229.516l-8.382-4.84c-0.907-0.524-0.907-1.373,0-1.896l4.27-2.465&#10;&#9;&#9;&#9;&#9;&#9;c0.907-0.524,2.378-0.524,3.285,0l8.383,4.84c0.907,0.524,0.907,1.373,0,1.896l-4.27,2.465&#10;&#9;&#9;&#9;&#9;&#9;C193.576,230.039,192.106,230.039,191.199,229.516z" style="fill:#3F6ECB;"/>
				<path d="M205.249,237.627l-8.383-4.84c-0.907-0.524-0.907-1.373,0-1.896l4.27-2.465&#10;&#9;&#9;&#9;&#9;&#9;c0.907-0.524,2.378-0.524,3.285,0l8.383,4.84c0.907,0.524,0.907,1.373,0,1.896l-4.27,2.465&#10;&#9;&#9;&#9;&#9;&#9;C207.626,238.151,206.156,238.151,205.249,237.627z" style="fill:#3F6ECB;"/>
				<path d="M261.449,270.074l-50.532-29.175c-0.907-0.524-0.907-1.373,0-1.896l4.27-2.465&#10;&#9;&#9;&#9;&#9;&#9;c0.907-0.524,2.378-0.524,3.285,0l50.532,29.175c0.907,0.524,0.907,1.373,0,1.896l-4.27,2.465&#10;&#9;&#9;&#9;&#9;&#9;C263.826,270.598,262.356,270.598,261.449,270.074z" style="fill:#3F6ECB;"/>
				<path d="M275.499,278.186l-8.383-4.84c-0.907-0.524-0.907-1.373,0-1.896l4.27-2.465&#10;&#9;&#9;&#9;&#9;&#9;c0.907-0.524,2.378-0.524,3.285,0l8.383,4.84c0.907,0.524,0.907,1.373,0,1.896l-4.27,2.465&#10;&#9;&#9;&#9;&#9;&#9;C277.876,278.71,276.406,278.71,275.499,278.186z" style="fill:#3F6ECB;"/>
				<path d="M289.548,286.298l-8.382-4.84c-0.907-0.524-0.907-1.373,0-1.896l4.27-2.465&#10;&#9;&#9;&#9;&#9;&#9;c0.907-0.524,2.378-0.524,3.285,0l8.383,4.84c0.907,0.524,0.907,1.373,0,1.896l-4.27,2.465&#10;&#9;&#9;&#9;&#9;&#9;C291.926,286.822,290.456,286.822,289.548,286.298z" style="fill:#3F6ECB;"/>
				<path d="M303.598,294.409l-8.383-4.84c-0.907-0.524-0.907-1.373,0-1.896l4.27-2.465&#10;&#9;&#9;&#9;&#9;&#9;c0.907-0.524,2.378-0.524,3.285,0l8.383,4.84c0.907,0.524,0.907,1.373,0,1.896l-4.27,2.465&#10;&#9;&#9;&#9;&#9;&#9;C305.976,294.933,304.505,294.933,303.598,294.409z" style="fill:#3F6ECB;"/>
			</g>
		</g>
		<g>
			<path d="M338.023,291.325v-1.488c0-0.343,0.209-0.742,0.466-0.891l8.396-4.848&#10;&#9;&#9;&#9;&#9;c0.257-0.149,0.466,0.009,0.466,0.353v1.488c0,0.343-0.209,0.742-0.466,0.891l-8.396,4.847&#10;&#9;&#9;&#9;&#9;C338.232,291.826,338.023,291.669,338.023,291.325z" style="fill:#1E3358;"/>
			<path d="M325.608,298.494v-1.488c0-0.343,0.209-0.742,0.466-0.891l8.396-4.847&#10;&#9;&#9;&#9;&#9;c0.257-0.149,0.466,0.009,0.466,0.352v1.488c0,0.343-0.209,0.742-0.466,0.891l-8.396,4.847&#10;&#9;&#9;&#9;&#9;C325.816,298.995,325.608,298.837,325.608,298.494z" style="fill:#1E3358;"/>
		</g>
	</g>
	<g>
		<g>
			<path d="M263.628,177.019l-32.623,29.624l-13.53-62.36l32.623-29.624c1.171-1.063,2.433-0.478,2.82,1.306&#10;&#9;&#9;&#9;&#9;l12.128,55.9C265.434,173.648,264.798,175.956,263.628,177.019z" style="fill:#FFFFFF;"/>
		</g>
		<polygon points="231.368,150.519 219.936,146.913 250.864,118.828 262.297,122.434" style="fill:#EAAA2F;"/>
		<polygon points="217.293,144.652 228.609,148.22 242.138,210.58 230.823,207.012" style="fill:#E27D26;"/>
		<g>
			<path d="M274.762,180.956l-32.623,29.624l-13.53-62.361l32.623-29.624c1.17-1.063,2.433-0.478,2.82,1.306&#10;&#9;&#9;&#9;&#9;l12.128,55.9C276.567,177.586,275.932,179.894,274.762,180.956z" style="fill:#3C69BB;"/>
		</g>
	</g>
	<g>
		<g>
			<path d="M289.555,190.644l-42.86,24.745v-71.665l42.86-24.745c1.538-0.888,2.784,0.055,2.784,2.105v64.24&#10;&#9;&#9;&#9;&#9;C292.34,187.374,291.093,189.756,289.555,190.644z" style="fill:#F5DB9D;"/>
		</g>
		<polygon points="260.459,153.877 248.77,147.198 289.403,123.738 301.093,130.418" style="fill:#E27D26;"/>
		<polygon points="246.408,144.087 257.978,150.697 257.978,222.362 246.408,215.752" style="fill:#FFFFFF;"/>
		<g>
			<path d="M300.837,197.617l-42.86,24.745v-71.665l42.86-24.745c1.538-0.888,2.784,0.055,2.784,2.105v64.24&#10;&#9;&#9;&#9;&#9;C303.622,194.348,302.375,196.729,300.837,197.617z" style="fill:#F5DB9D;"/>
		</g>
	</g>
	<g>
		<g>
			<path d="M294.953,203.282l-34.393,19.857v-57.508l34.393-19.857c1.234-0.712,2.234,0.044,2.234,1.689&#10;&#9;&#9;&#9;&#9;v51.55C297.188,200.658,296.187,202.569,294.953,203.282z" style="fill:#3F6ECB;"/>
		</g>
		<polygon points="271.605,173.778 262.225,168.418 294.831,149.593 304.211,154.953" style="fill:#FFFFFF;"/>
		<polygon points="260.33,165.922 269.614,171.226 269.614,228.734 260.33,223.429" style="fill:#EAAA2F;"/>
		<g>
			<path d="M304.007,208.877l-34.393,19.857v-57.508l34.393-19.857c1.234-0.712,2.234,0.044,2.234,1.689&#10;&#9;&#9;&#9;&#9;v51.55C306.241,206.253,305.241,208.165,304.007,208.877z" style="fill:#F5DB9D;"/>
		</g>
	</g>
	<g>
		<g>
			<path d="M319.14,207.729l-42.86,24.745v-71.665l42.86-24.745c1.538-0.888,2.784,0.055,2.784,2.105v64.24&#10;&#9;&#9;&#9;&#9;C321.924,204.459,320.678,206.841,319.14,207.729z" style="fill:#F5DB9D;"/>
		</g>
		<polygon points="290.044,170.962 278.355,164.283 318.988,140.823 330.677,147.503" style="fill:#EAAA2F;"/>
		<polygon points="275.993,161.171 287.563,167.782 287.563,239.447 275.993,232.837" style="fill:#6FA4F4;"/>
		<g>
			<path d="M330.422,214.702l-42.86,24.745v-71.665l42.86-24.745c1.538-0.888,2.784,0.055,2.784,2.105v64.241&#10;&#9;&#9;&#9;&#9;C333.206,211.432,331.96,213.814,330.422,214.702z" style="fill:#FFFFFF;"/>
		</g>
	</g>
	<g>
		<g>
			<path d="M332.518,221.17l-38.163,22.033v-63.811l38.163-22.033c1.369-0.79,2.479,0.049,2.479,1.874v57.2&#10;&#9;&#9;&#9;&#9;C334.997,218.259,333.887,220.38,332.518,221.17z" style="fill:#F5DB9D;"/>
		</g>
		<polygon points="306.611,188.433 296.203,182.485 332.383,161.597 342.791,167.544" style="fill:#3C69BB;"/>
		<polygon points="294.1,179.715 304.401,185.601 304.401,249.412 294.1,243.526" style="fill:#E27D26;"/>
		<g>
			<path d="M342.564,227.379l-38.163,22.033v-63.811l38.163-22.033c1.369-0.79,2.479,0.049,2.479,1.874v57.2&#10;&#9;&#9;&#9;&#9;C345.043,224.468,343.933,226.589,342.564,227.379z" style="fill:#EAAA2F;"/>
		</g>
	</g>
	<g>
		<path d="M218.286,260.327c-0.706,0.228-0.032,0.706-0.193,2.957c-0.132,1.062-0.311,1.93-0.246,2.107&#10;&#9;&#9;&#9;c0.255,0.709,1.261,0.526,1.663,0.645c1.358,0.401,0.975-1.371,0.979-2.221c0.008-1.111-0.056-2.519-0.124-2.763&#10;&#9;&#9;&#9;c-0.141-0.506-0.727-0.67-1.034-0.425c-0.445,0.374-0.208,0.798-0.402,0.03C218.861,260.387,218.538,260.246,218.286,260.327&#10;&#9;&#9;&#9; M218.039,261.32C218.048,261.368,218.046,261.36,218.039,261.32" style="fill:#EBA76C;"/>
		<path d="M187.658,246.893c-0.001,0.001-2.133,1.223-2.133,1.223c-0.205,0.09-0.462,0.169-0.652,0.297&#10;&#9;&#9;&#9;c-0.421,0.277-0.286,0.792-0.304,1.184c-0.022,0.176-0.058,0.33,0.016,0.492c0.059,0.182,0.197,0.324,0.351,0.378&#10;&#9;&#9;&#9;c0.537,0.284,1.067-0.251,2.065-0.758c0.655-0.296,2.026-0.754,1.943-1.468c-0.023-0.186-0.072-0.335-0.22-0.458&#10;&#9;&#9;&#9;c0.137-0.382-0.161-0.762-0.502-0.799C188.084,246.812,187.846,246.786,187.658,246.893" style="fill:#EBA76C;"/>
		<path d="M208.366,205.942c-0.552,0-0.992,0.38-1.104,0.901c-2.748,2.168-4.096,3.407-4.991,6.675&#10;&#9;&#9;&#9;c-1.112,3.998-0.596,11.849-0.307,14.434c0.268,2.521,0.713,3.023-1.1,3.922c-1.589,0.679-1.591,0.513-3.426,2.561&#10;&#9;&#9;&#9;c-2.89,3.225-0.497,0.96-4.415,4.966c-3.128,3.197-6.62,7.314-6.62,7.314c-0.498,0.721,0.61,1.83,0.421,1.586&#10;&#9;&#9;&#9;c0.27,0.349,0.014,0.753,0.654,1.128c0.523,0.31,1.222,0.022,1.841-0.157c5.055-1.528,6.825-2.361,9.798-4.525&#10;&#9;&#9;&#9;c7.347-5.355,10.295-1.826,13.593-14.855c0.062-0.244,2.434-11.574,1.496-14.437C214.123,215.203,210.559,205.942,208.366,205.942" style="fill:#E27D26;"/>
		<path d="M219.454,206.141c-0.214,0-0.396,0.055-0.596,0.134c-0.244,0.096-3.98,1.901-7.613,2.296&#10;&#9;&#9;&#9;c-1.082,0.119-2.132,0.201-2.879,0.643c-0.66,0.39-0.753,1.442-0.053,1.935c-1.504,7.041,1.851,11.57,6.044,18.271&#10;&#9;&#9;&#9;c2.479,4.007,0.243,6.189,0.334,16.092c0.014,1.355-0.001,2.365,0.441,4.773l-0.005-0.052c0.197,1.267,0.324,2.261,0.498,3.228&#10;&#9;&#9;&#9;l-0.011-0.083c0.496,2.9,0.813,4.072,0.813,4.072c0.313,0.979,1.008,4.527,0.948,4.282c0.244,0.992,1.567,1.327,2.385,1.334&#10;&#9;&#9;&#9;c1.395,0,0.909-0.275,5.177-23.018c1.43-7.622,1.074-13.351,0.155-18.507l0.015,0.115c-0.429-2.425-1.214-4.805-2.076-7.124&#10;&#9;&#9;&#9;C220.769,208.487,221.235,206.141,219.454,206.141" style="fill:#EAAA2F;"/>
		<path d="M226.013,143.47L226.013,143.47c-0.337,0-1.459,0.645-1.001,1.305&#10;&#9;&#9;&#9;c0.007,0.163,0.182,0.894,0.151,0.785c0.119,1.416,0.318,4.68,1.636,5.944l-0.002,0.001l0.005,0.005l-0.001,0l0.001,0.001&#10;&#9;&#9;&#9;l0.001-0.001l0.012,0.012l0.002-0.001c-0.002,0.006,0.01,0.021,0.023,0.035l-0.023-0.035c0.044,0.061,0.116,0.135,0.169,0.193&#10;&#9;&#9;&#9;l-0.002-0.002c0.108,0.142,0.234,0.305,0.371,0.458l-0.017-0.025c0.053,0.066,0.056,0.071,0.133,0.164l-0.017-0.026&#10;&#9;&#9;&#9;c0.416,0.515,0.811,0.768,0.811,0.768l0,0c-0.001,0-0.002-0.001-0.003-0.001l0.021,0.015l-0.002,0.001&#10;&#9;&#9;&#9;c0.585,0.968,0.361,2.342,1.437,7.333l-0.001-0.032c1.438,8.315,3.912,3.267-3.805,12.361c-1.729,2.035-2.244,2.528-2.847,3.108&#10;&#9;&#9;&#9;c-0.289,0.277-0.012,0.852,0.441,0.722c0.171,0.359,0.362,0.48,0.601,0.588c0.394,0.178,0.263,0.397,0.954,0.558&#10;&#9;&#9;&#9;c1.382,0.332,2.78-1.636,6.282-4.575l-0.033,0.023c5.411-4.354,6.714-3.927,5.075-9.319c-2.771-9.172-3.051-9.502-3.576-10.593&#10;&#9;&#9;&#9;l0.012,0.038c-0.997-2.131-1.055-1.428-1.351-2.803c-0.232-2.73-0.333-3.863-3.579-5.877l0.001-0.002&#10;&#9;&#9;&#9;c-0.27-0.21-0.396-0.367-0.953-0.766l0.001,0.001C226.662,143.622,226.398,143.486,226.013,143.47" style="fill:#EBA76C;"/>
		<g>
			<path d="M198.714,198.307c-0.256-0.737-0.551-1.298-1.304-1.298c-0.472,0-0.914,0.362-1.297,0.856&#10;&#9;&#9;&#9;&#9;c-0.151-0.016-0.299,0.062-0.381,0.2c-1.465,2.476-3.716,7.923-4.924,11.182c-0.551,1.165-0.944,1.883-1.287,2.642&#10;&#9;&#9;&#9;&#9;c-0.412,0.919-0.652,1.495-1.335,1.907c-2.182,1.317-2.307,1.399-2.769,2.096c-0.769,1.145-0.738,1.748-0.738,1.748&#10;&#9;&#9;&#9;&#9;c-0.291,1.978-0.168,2.571-0.094,3.045c0.214,1.355,0.141,2.035,0.771,2.162c0.931,0.184,1.337-1.326,1.565-2.247&#10;&#9;&#9;&#9;&#9;c0.488-1.958,0.932-2.287,2.174-3.138c1.369-0.937,1.434-1.026,1.683-1.399c0.043-0.066,0.09-0.172,0.128-0.267&#10;&#9;&#9;&#9;&#9;c1.571-1.308,2.434-4.846,6.629-12.315c0.497-0.886,0.436-0.904,0.803-1.452c0.262-0.393,0.404-0.516,0.323-0.799&#10;&#9;&#9;&#9;&#9;C199.153,200.302,199.185,199.645,198.714,198.307z" style="fill:#EBA76C;"/>
			<path d="M192.186,205.712l0.063-0.169C192.237,205.577,192.199,205.679,192.186,205.712z" style="fill:#E9A92F;"/>
		</g>
		<path d="M219.835,264.668c-0.421,0.068-1.492-0.37-1.834-0.046c-0.904,0.287-1.163,1.328-1.157,2.272&#10;&#9;&#9;&#9;c0.011,1.013,0.225,1.662,1.054,2.153c0.606,0.367,3.641,0.914,5.647,0.734c2.1-0.189,3.515-0.224,4.122-0.999&#10;&#9;&#9;&#9;c0.411-0.524,0.421-1.119-0.151-1.515c-0.144-0.099-0.441-0.127-0.63-0.191c-1.664-0.716-1.424-0.723-2.036-1.088&#10;&#9;&#9;&#9;C221.629,264.064,221.259,264.382,219.835,264.668 M221.101,269.724C221.274,269.739,221.274,269.739,221.101,269.724&#10;&#9;&#9;&#9; M221.641,269.778C221.461,269.761,221.477,269.763,221.641,269.778" style="fill:#2F5483;"/>
		<path d="M183.082,246.483c-1.008,0.045-1.957,0.477-2.474,1.359c-0.373,0.629-0.177,1.419,0.143,2.817&#10;&#9;&#9;&#9;c0.499,2.192,1.178,1.833,1.858,3.204c0.74,1.592,1.367,3.788,2.196,4.847c0.937,1.188,1.699,0.711,1.836,0.346&#10;&#9;&#9;&#9;c0.187-0.504,0.116-4.213,0.1-4.476c-0.135-2.332,0.105-2.983-0.321-3.834c-0.317-0.639-1.459-0.517-1.37-2.549&#10;&#9;&#9;&#9;c0.007-0.173-0.087-0.326-0.223-0.426c-0.303-0.956-0.882-1.291-1.635-1.291C183.156,246.481,183.119,246.482,183.082,246.483&#10;&#9;&#9;&#9; M185.837,250.229C185.936,250.299,185.946,250.306,185.837,250.229" style="fill:#2F5483;"/>
		<path d="M229.883,168.005c-0.936,0-1.919,1.271-3.885,2.656c-0.647,0.456-0.846,0.659-0.826,0.642&#10;&#9;&#9;&#9;c-0.619,0.508-1.833,1.104-1.606,0.984c-1.863,0.984-1.898,1.233-3.387,2.147c-0.895,0.554-1.682,0.542-4.099,1.197&#10;&#9;&#9;&#9;c-0.74,0.093-0.583,0.125-0.882,0.186l0.016,0c0,0-0.347,0.037-1.012,0.451c-0.282,0.176-0.156,0.052-0.561,0.217&#10;&#9;&#9;&#9;c-0.86,0.34-0.907,0.568-2.045,0.633c-0.033,0.002-0.829,0.095-0.829,0.115l0.021-0.001l0-0.003l0.026,0.001&#10;&#9;&#9;&#9;c-1.43,0.195-2.464,0.56-2.744,0.647c-0.833,0.263-3.035,0.178-5.155,3.252l0.051-0.063c-1.736,2.458-3.662,6.266-4.627,8.696&#10;&#9;&#9;&#9;c-1.443,3.65-2.89,6.636-3.612,8.497l-0.001,0l-0.008,0.02l0.003-0.005c-0.514,1.318-0.68,1.793,0.283,2.853&#10;&#9;&#9;&#9;c0.661,0.734,1.351,1.298,1.351,1.298l-0.006-0.008c0.4,0.456,0.992,2.576,4.185-2.447c0.571-0.901,0.671-1.071,1.867-2.547&#10;&#9;&#9;&#9;c1.322-1.637,0.973-1.74,0.847,0.436l-0.124,7.868c0.029,2.263-0.885,4.344,1.236,4.939c1.228,0.355,1.514,0.121,2.82,0.253&#10;&#9;&#9;&#9;c0.908,0.131,0.989,0.369,4.038,0.21c1.169-0.061,0.94,0.05,1.908,0.05c4.059,0,5.59-0.751,6.164-0.837&#10;&#9;&#9;&#9;c2.607-0.387,2.619-1.311,2.552-2.803c-0.587-12.709,0.021-7.369,0.682-17.606l0.089-2.126c0.388-4.169,0.469-3.756,1.134-4.349&#10;&#9;&#9;&#9;l-0.04,0.028c0,0,0.377-0.379,0.91-0.823l-0.023,0.013c0.967-0.6,4.342-3.799,4.992-4.27c0.907-0.657,0.617-0.363,1.739-1.383&#10;&#9;&#9;&#9;l-0.045,0.032c0.145-0.117,0.288-0.239,0.429-0.362c-0.492,0.346,1.268-0.917,2.487-2.763l-0.049,0.06&#10;&#9;&#9;&#9;c0.332-0.452,0.438-0.842,0.456-1.272c0.063-0.986-0.562-0.521-2.781-3.033C231.399,169.118,230.854,168.005,229.883,168.005&#10;&#9;&#9;&#9; M197.443,201.531c-0.001-0.002-0.003-0.004-0.003-0.004C197.545,201.423,197.566,201.396,197.443,201.531" style="fill:#2F5483;"/>
		<path d="M207.508,161.419c-1.802,0-2.862,0.861-3.886,2.115c-0.349,0.429-0.594,0.674-0.807,1.166&#10;&#9;&#9;&#9;c-0.323,0.743-0.34,1.567-0.372,2.37c-0.007,0.054-0.031,0.25-0.031,0.25l-0.004,0.04l0.002-0.008&#10;&#9;&#9;&#9;c-0.486,4.691-0.081,4.504,0.057,8.52c0.143,4-0.489,4.215,0.416,8.675c0-0.04-0.005-0.055-0.005-0.055&#10;&#9;&#9;&#9;c0.139,0.785,0.416,1.79,0.783,2.57l-0.004-0.01c0.003,0.006,0.051,0.117,0.057,0.117v0c0.001,0,0.007,0.009,0.007,0.009l0,0&#10;&#9;&#9;&#9;c0.982,2.125,1.545,2.53,2.606,4.427c0.403,0.723,1.279,2.134,1.432,2.379c0.931,1.493,1.232,1.597,1.749,2.613&#10;&#9;&#9;&#9;c0.18,0.391,0.333,0.773,0.53,1.14c0.238,0.442,0.908,0.934,1.676,0.166c0.697-0.696,1.492-1.173,2.531-4.039l-0.026,0.061&#10;&#9;&#9;&#9;c1.52-3.928-0.427-4.206,2.049-13.107l0.002,0.001c1.566-4.146,1.121-6.419,0.426-8.731c-0.873-2.911-0.79-2.686-2.723-5.792&#10;&#9;&#9;&#9;c-0.152-0.244-1.926-2.774-3.34-3.939c-0.446-0.366-0.933-0.86-2.969-0.933C207.613,161.42,207.561,161.419,207.508,161.419" style="fill:#EAAA2F;"/>
	</g>
	<g>
		<path d="M246.239,345.388c-0.378,0-0.649,0.218-0.81,0.401c-0.365-0.256-0.878-0.03-0.914,0.48&#10;&#9;&#9;&#9;c-0.072,1.051-0.036,1.37-0.682,2.939l0.004-0.009c-1.583,3.758-2.4,3.097-4.164,7.148l0,0l-0.047,0.111l0.052-0.108&#10;&#9;&#9;&#9;c-0.395,0.889-0.752,2.206-0.697,2.024c-0.449,1.504-0.285,2.068,0.256,2.463c0.872,0.648,2.969-0.388,3.851-1.056&#10;&#9;&#9;&#9;c3.488-2.628,4.215-3.738,4.09-3.611c0.331-0.424,0.393-0.536,0.567-0.927c1.405-3.146,1.061-3.988,0.435-6.276&#10;&#9;&#9;&#9;c-0.592-2.157-0.439-2.141-0.703-2.725C247.243,345.731,246.746,345.388,246.239,345.388" style="fill:#1E3358;"/>
		<path d="M240.14,338.957c-0.539,0-1.956,0.559-2.335,1.611c-0.113,0.084-0.181,0.219-0.182,0.359&#10;&#9;&#9;&#9;c-0.001,0.229-0.001,0.333-0.001,0.333c-0.14,0.745-0.142,1.553-0.207,2.635c-0.609,2.391-3.312,4.767-4.364,7.226l0.022-0.041&#10;&#9;&#9;&#9;c-1.374,3.101-0.339,5.456,6.458-0.294l-0.151,0.11c0.443-0.334,0.835-0.661,1.476-1.283c2.122-2.059,2.992-2.926,1.742-5.58&#10;&#9;&#9;&#9;c-1.279-2.732-0.515-4.121-1.798-4.901C240.619,339.023,240.372,338.957,240.14,338.957" style="fill:#1E3358;"/>
		<path d="M265.818,305.689c-1.287,0-1.74,0.495-2.575,1.353c-0.304,0.314-0.948,0.821-0.492,1.571&#10;&#9;&#9;&#9;c-5.29,3.897-10.194,8.829-11.014,10.034c-1.788,2.613-5.492,12.042-7.738,21.979c-1.135,5.032-1.646,5.98-1.81,7.543&#10;&#9;&#9;&#9;c-0.107,0.964,0.486,1.912,1.299,2.276c0.998,0.448,1.609,0.473,3.608,0.466c0.652-0.001,1.108,0.033,1.617-0.714&#10;&#9;&#9;&#9;c0.842-1.236,1.104-5.141,1.628-6.838c1.204-3.898,5.119-9.892,5.998-13.865c0.928-4.184-0.006-4.519,3.673-6.555&#10;&#9;&#9;&#9;c0.998-0.552,1.252-0.713,1.898-1.174c1.566-1.123,5.898-3.275,7.192-4.201c1.753-1.266,3.864-2.401,3.139-5.617&#10;&#9;&#9;&#9;c-0.383-1.688-0.79-1.866-1.64-2.684c-1.09-1.048-1.154-0.835-1.643-1.681c-0.54-0.938-1.019-1.52-2.333-1.806&#10;&#9;&#9;&#9;C266.358,305.718,266.087,305.689,265.818,305.689" style="fill:#3C69BA;"/>
		<path d="M256.033,302.498c-1.223,0-2.268,0.858-5.423,2.592c-3.081,1.696-2.518,1.763-5.527,3.702&#10;&#9;&#9;&#9;c-6.445,4.155-7.672,5.677-8.423,7.101c-1.57,2.963-1.652,4.251-1.747,5.627c-0.02,0.282-0.194,10.436,0.941,17.392&#10;&#9;&#9;&#9;c0.61,3.732,0.388,3.763,1.544,4.172c0.386,0.136,1.269,0.235,1.063,0.206c1.021,0.143,1.678,0.223,2.93-0.381&#10;&#9;&#9;&#9;c0.94-0.455,1.105-0.692,1.643-6.886c0.695-7.841,1.424-9.632,0.79-11.574c-0.417-1.278-1.139-2.35-0.56-4.284&#10;&#9;&#9;&#9;c0.188-0.339,0.674-0.826,0.961-1.089c2.157-1.978,3.192-1.959,4.247-2.635c0.752-0.481,2.214-1.57,2.329-1.678l0.002,0.002&#10;&#9;&#9;&#9;l0.025-0.023l0.001,0.002l0.029-0.025l-0.002-0.002c0,0,2.172-1.524,2.173-1.525c6.563-4.656,7.982-3.872,8.089-5.928&#10;&#9;&#9;&#9;c0.026-0.51-0.23-0.827-0.749-1.73c-0.838-1.46-1.055-1.219-1.746-1.697C257.319,302.759,256.755,302.498,256.033,302.498" style="fill:#3C69BA;"/>
		<path d="M283.811,297.965c-0.048-0.953-0.573-5.609-0.573-5.609c0-0.005-0.029-0.203-0.058-0.401&#10;&#9;&#9;&#9;c-0.026-0.201-0.055-0.399-0.055-0.404v0.04c0-0.005-0.003-0.069-0.008-0.069c-0.003-0.005-0.003-0.016-0.005-0.016l-0.003-0.045&#10;&#9;&#9;&#9;l-0.003,0.003c-0.57-9.64-2.497-8.56-7.082-12.292c-1.293-1.053-2.433-1.339-3.634-2.15c-2.283-1.54-4.073,1.822-4.812-1.234&#10;&#9;&#9;&#9;c0.238-0.43,0.132-0.963-0.47-1.291c-0.222-0.119-0.618-0.42-0.821-0.57c-0.604-0.454-0.575-0.362-1.47-0.771&#10;&#9;&#9;&#9;c-0.533-0.243-0.889-0.409-1.557-0.493c-0.156-0.021-0.309-0.032-0.459-0.032c-1.721,0-3.442,1.251-4.519,2.613&#10;&#9;&#9;&#9;c-1.605,2.03-1.679,3.027-3.748,6.633c-1.948,3.397-1.702,3.41-2.463,5.366c-0.459,1.182-0.333,1.599-0.032,1.956&#10;&#9;&#9;&#9;c0.142,0.172,0.327,0.33,0.507,0.552c1.544,1.916,3.02,2.529,3.943,2.89c0.29,0.116,0.525,0.206,0.692,0.303&#10;&#9;&#9;&#9;c0.169,0.974-2.507,6.936-3.13,8.549c-0.406,1.053-1.09,2.069-1.473,3.228c-0.003,0.011-0.005,0.018-0.005,0.026&#10;&#9;&#9;&#9;c-0.121,0.37-0.208,0.755-0.245,1.161c-0.003,0.005-0.003,0.011-0.003,0.013c-0.042,0.451-0.021,0.926,0.087,1.433&#10;&#9;&#9;&#9;c0.261,1.198,2.262,2.175,3.389,2.647c0,0,1.338,0.831,3.017,1.848c1.618,0.974,3.55,2.122,4.901,2.853&#10;&#9;&#9;&#9;c1.315,0.705,1.885,1.19,1.855,1.169c0.003,0.003,0.005,0.005,0.011,0.008c0.531,0.378,2.721,1.357,2.983,1.428&#10;&#9;&#9;&#9;c1.154,0.309,3.157-0.473,4.646-2.011c0.232-0.238,0.406-0.414,0.546-0.557c0.515-0.523,0.573-0.591,1.212-1.46&#10;&#9;&#9;&#9;c1.401-1.832,1.576-3.772,1.694-4.846c0.011-0.105,0.024-0.203,0.034-0.293c0,0,0.158-1.43,0.158-1.433&#10;&#9;&#9;&#9;c0.581-4.796,0.377-3.727,0.359-6.374c-0.003-0.367-0.063-0.433,0.14-0.388c0.161,0.037,0.491,0.142,1.146,0.227&#10;&#9;&#9;&#9;c0.665,0.085,1.314-0.037,1.972-0.161c0.903-0.169,1.639-0.238,2.191-0.385C283.46,299.414,283.867,299.039,283.811,297.965z" style="fill:#96BDEF;"/>
		<path d="M273.054,264.754c-0.392,0-0.619,0.189-0.814,0.449c-0.758,1.007-2.284,2.52-2.843,2.973&#10;&#9;&#9;&#9;c-1.621,1.17-4.065,1.569-4.484,2.498c-0.192,0.455-0.269,0.922,0.149,1.375c0.278,1.103,0.612,2.229,0.776,3.375l-0.001-0.014&#10;&#9;&#9;&#9;c0.057,0.433,0.183,2.28,0.171,2.72c-0.034,1.1-0.271,1.232,0.045,1.823c0.649,1.234,4.207,1.171,5.562,0.815l0.644-0.169&#10;&#9;&#9;&#9;c0.443-0.044,0.998,0.01,1.285-0.784c0.089-0.498,0.033-0.631-0.089-1.326c-0.502-2.859-0.227-4.266-0.089-5.226l-0.004,0.015&#10;&#9;&#9;&#9;c0.847-5.887,0.54-5.132,0.609-6.921C273.992,265.805,274.108,264.804,273.054,264.754" style="fill:#D29026;"/>
		<path d="M256.49,292.641c-0.633,0.91-1.074,1.365-1.927,4.276c-0.81,2.777-0.319,1.724-1.148,4.553&#10;&#9;&#9;&#9;c-0.378,1.291-0.636,2.349-0.837,3.252c-0.003,0.011-0.005,0.018-0.005,0.026c-0.095,0.42-0.174,0.802-0.245,1.161&#10;&#9;&#9;&#9;c-0.003,0.005-0.003,0.011-0.003,0.013c-0.322,1.586-0.507,2.671-1.053,3.925c-1.634,3.933-3.613,4.363-4.099,3.455&#10;&#9;&#9;&#9;c-0.636-1.183-0.267-4.664,0.214-5.672c0,0,0.251-0.52,0.388-0.824c0.275-0.678,1.217-4.073,1.526-5.873&#10;&#9;&#9;&#9;c0,0,0.201-0.784,0.493-2.518c0.224-1.383,0.185-1.175,0.264-1.549c0.153-0.755,0.364-2.199,0.364-2.199l0.003-0.008&#10;&#9;&#9;&#9;c-0.003,0-0.003,0-0.003,0c0.037-0.246,0.079-0.758,0.108-1.074c0.166-1.874,0.789-3.223,1.51-4.387&#10;&#9;&#9;&#9;c0.142,0.172,0.327,0.33,0.507,0.552C254.091,291.667,255.566,292.279,256.49,292.641z" style="fill:#EBA76C;"/>
		<path d="M265.617,258.677c-1.341,0-2.953,0.782-3.688,1.641c-1.857,2.166-3.488,9.977,1.267,16.235&#10;&#9;&#9;&#9;c0.467,0.639,1.483,3.208,4.473,0.797c0.328-0.263,1.639-1.471,1.571-1.409c2.908-2.626,3.997-7.263,3.267-11.018&#10;&#9;&#9;&#9;c-0.559-2.879-1.862-4.212-3.552-5.275C267.879,258.982,266.686,258.677,265.617,258.677" style="fill:#EBA76C;"/>
		<path d="M267.759,254.836c-0.856,0-1.51,0.076-4.168,1.483c-0.88,0.464-3.629,1.684-3.922,3.751&#10;&#9;&#9;&#9;c-0.017,0.109-0.138,0.936-0.195,1.03c-0.149,0.256-0.018,1.167,0.577,1.649c0.272,0.222,0.523,0.496,0.938,0.711&#10;&#9;&#9;&#9;c0.344,0.182,1.722,0.357,1.458,0.316c2.862,0.447,3.591-1.215,5.37-1.046c0.214,0.039,0.593,0.129,0.775,0.248&#10;&#9;&#9;&#9;c0.881,0.792,1.271,1.84,1.415,2.104l-0.002,0.001c1.822,4.499-1.192,10.81,0.965,10.81c1.246,0,2.971-2.565,3.651-3.603&#10;&#9;&#9;&#9;c1.792-2.737,3.097-8.526,1.153-12.34c-1.761-3.465-2.77-3.84-6.023-4.886c-0.517-0.168-1.352-0.211-1.859-0.228&#10;&#9;&#9;&#9;C267.845,254.837,267.802,254.836,267.759,254.836" style="fill:#3C69BA;"/>
		<path d="M270.745,267.952c-0.34,0.037-0.612,0.285-0.838,0.553c-0.318,0.379-0.522,0.675-0.604,0.998&#10;&#9;&#9;&#9;c-0.094,0.366-0.227,0.829-0.104,1.068c0.197,0.382,0.354,0.07,0.227,0.458c-0.717,1.023,0.452,1.913,1.28,1.402&#10;&#9;&#9;&#9;c1.097-0.67,1.724-2.906,1.519-3.511C271.969,268.161,271.389,267.882,270.745,267.952 M272.244,269.517&#10;&#9;&#9;&#9;C272.223,269.644,272.22,269.662,272.244,269.517" style="fill:#EBA76C;"/>
		<g>
			<polygon points="233.101,311.989 249.671,303.365 270.316,313.607 272.249,313.607 272.249,314.576 &#10;&#9;&#9;&#9;&#9;272.231,314.576 255.756,323.573" style="fill:#DAE7F9;"/>
			<polygon points="255.756,322.656 272.249,313.649 249.671,302.448 233.101,311.071" style="fill:#1E3358;"/>
			<polygon points="224.311,295.662 225.036,295.119 247.6,306.718 256.558,323.135 255.756,323.573 &#10;&#9;&#9;&#9;&#9;253.876,322.205 254.426,321.978 233.826,311.445 226.099,297.092 225.789,297.415" style="fill:#3C69BA;"/>
			<polygon points="255.756,323.573 246.875,307.262 224.311,295.662 233.101,311.989" style="fill:#1E3358;"/>
			<path d="M251.007,309.964l4.656,2.688c0.524,0.303,1.317,0.335,1.77,0.073l3.301-1.906&#10;&#9;&#9;&#9;&#9;c0.454-0.262,0.397-0.72-0.127-1.022l-4.656-2.688c-0.524-0.303-1.317-0.335-1.77-0.073l-3.301,1.906&#10;&#9;&#9;&#9;&#9;C250.426,309.204,250.483,309.661,251.007,309.964z" style="fill:#3C69BA;"/>
		</g>
		<path d="M273.76,314.741c-0.193,0.013-0.391,0.026-0.594,0.037c-0.396,0.024-3.109-0.053-6.612,0.868&#10;&#9;&#9;&#9;c-0.377,0.098-0.697,0.174-0.969,0.235c-1.259,0.272-1.497,0.164-1.919,0.092c-1.732-0.148-2.592,0.396-2.951,0.533l0.024-0.005&#10;&#9;&#9;&#9;c-1.291,0.565-2.033,0.496-3.112,0.908c-0.607,0.275-1.053,0.62-1.716,0.597c-0.845-0.048-1.813-0.557-1.544-1.283&#10;&#9;&#9;&#9;c0.106-0.282,1.204-2.668,2.539-3.748c0.401-0.322,1.13-0.771,1.911-1.124c0.699-0.317,1.441-0.557,2.032-0.562&#10;&#9;&#9;&#9;c0.048-0.005,0.641-0.034,1.394,0.084c2.806,0.319,1.52,0.264,8.692-1.169c2.307-0.462,4.529-1.241,5.73-1.768&#10;&#9;&#9;&#9;c0.538-0.235,0.874-0.422,0.921-0.507c0,0,0.016-0.301-0.003-1.156c-0.053-2.803-0.158-5.049-0.227-6.826&#10;&#9;&#9;&#9;c0.161,0.037,0.491,0.142,1.146,0.227c0.665,0.085,1.314-0.037,1.972-0.161c0.903-0.169,1.639-0.238,2.191-0.385&#10;&#9;&#9;&#9;c-0.016,0.501-0.026,1.053-0.032,1.663C282.568,311.695,283.674,314.105,273.76,314.741z" style="fill:#EBA76C;"/>
	</g>
	<g>
		<polygon points="161.231,77.746 163.885,76.225 165.837,77.428 162.688,79.269" style="fill:#EAAA2F;"/>
		<polygon points="173.786,75.532 176.652,73.873 177.986,74.838 174.427,76.188" style="fill:#EAAA2F;"/>
		<polygon points="203.713,114.462 206.349,112.952 205.979,112.253 202.857,113.275" style="fill:#EAAA2F;"/>
		<path d="M208.723,105.686v2.055c0,5.121-3.595,7.196-8.03,4.636l-7.593-4.384l-13.38-7.725l-9.823-5.671&#10;&#9;&#9;&#9;c-4.435-2.56-8.03-8.787-8.03-13.908l0,0c0-4.398,3.087-6.18,6.896-3.981c1.557,0.899,2.995,2.325,4.149,3.997&#10;&#9;&#9;&#9;c0.831-7.273,6.556-9.968,13.497-5.96c5.98,3.452,11.06,10.84,12.883,18.089c0.784,0.095,1.638,0.392,2.534,0.909&#10;&#9;&#9;&#9;C205.636,95.94,208.723,101.287,208.723,105.686z" style="fill:#EAAA2F;"/>
		<path d="M206.105,107.185v2.055c0,5.121-3.595,7.196-8.03,4.636l-7.593-4.384l-13.38-7.725l-9.823-5.671&#10;&#9;&#9;&#9;c-4.435-2.56-8.03-8.787-8.03-13.908l0,0c0-4.398,3.087-6.181,6.896-3.981c1.557,0.899,2.995,2.325,4.149,3.997&#10;&#9;&#9;&#9;c0.831-7.273,6.556-9.968,13.497-5.96c5.98,3.452,11.06,10.84,12.883,18.089c0.784,0.095,1.638,0.392,2.534,0.909&#10;&#9;&#9;&#9;C203.018,97.44,206.105,102.787,206.105,107.185z" style="fill:#E27D26;"/>
	</g>
	<g>
		<polygon points="345.856,86.294 348.854,84.575 351.059,85.935 347.501,88.014" style="fill:#E27D26;"/>
		<polygon points="360.036,83.793 363.273,81.919 364.781,83.009 360.761,84.533" style="fill:#E27D26;"/>
		<polygon points="393.838,127.763 396.816,126.057 396.398,125.268 392.871,126.423" style="fill:#E27D26;"/>
		<path d="M399.497,117.85v2.321c0,5.784-4.06,8.128-9.069,5.236l-8.576-4.952l-15.113-8.725l-11.094-6.405&#10;&#9;&#9;&#9;c-5.009-2.892-9.069-9.925-9.069-15.708l0,0c0-4.968,3.487-6.981,7.789-4.497c1.759,1.015,3.382,2.626,4.686,4.514&#10;&#9;&#9;&#9;c0.939-8.215,7.405-11.258,15.245-6.732c6.754,3.899,12.492,12.244,14.551,20.431c0.886,0.107,1.85,0.442,2.862,1.026&#10;&#9;&#9;&#9;C396.01,106.843,399.497,112.883,399.497,117.85z" style="fill:#E27D26;"/>
		<path d="M396.54,119.544v2.321c0,5.784-4.06,8.128-9.069,5.236l-8.576-4.952l-15.113-8.725l-11.095-6.405&#10;&#9;&#9;&#9;c-5.009-2.892-9.069-9.925-9.069-15.708l0,0c0-4.968,3.487-6.981,7.789-4.497c1.758,1.015,3.382,2.625,4.686,4.514&#10;&#9;&#9;&#9;c0.939-8.215,7.405-11.258,15.245-6.732c6.754,3.899,12.492,12.244,14.551,20.431c0.886,0.107,1.85,0.442,2.862,1.026&#10;&#9;&#9;&#9;C393.053,108.537,396.54,114.577,396.54,119.544z" style="fill:#3F6ECB;"/>
	</g>
	<g>
		<g>
			<path d="M338.803,364.51l-38.763-22.38c-1.886-1.089-1.65-2.991,0.528-4.249l71.574-41.323&#10;&#9;&#9;&#9;&#9;c2.178-1.258,5.473-1.394,7.359-0.305l38.763,22.38c1.886,1.089,1.65,2.991-0.528,4.249l-71.574,41.323&#10;&#9;&#9;&#9;&#9;C343.984,365.462,340.689,365.599,338.803,364.51z" style="fill:#6FA4F4;"/>
		</g>
		<rect height="4.248" width="2.942" style="fill:#6FA4F4;" y="316.332" x="416.595"/>
		<rect height="4.37" width="3.538" style="fill:#6FA4F4;" y="336.02" x="298.766"/>
		<g>
			<path d="M338.803,360.348l-38.763-22.38c-1.886-1.089-1.65-2.991,0.528-4.249l71.574-41.323&#10;&#9;&#9;&#9;&#9;c2.178-1.258,5.473-1.394,7.359-0.305l38.763,22.38c1.886,1.089,1.65,2.991-0.528,4.249l-71.574,41.323&#10;&#9;&#9;&#9;&#9;C343.984,361.301,340.689,361.437,338.803,360.348z" style="fill:#3F6ECB;"/>
			<path d="M304.034,334.631l68.213-39.383c1.306-0.754,3.281-0.836,4.412-0.183l36.453,21.046&#10;&#9;&#9;&#9;&#9;c1.131,0.653,0.989,1.793-0.317,2.547l-68.214,39.383c-1.306,0.754-3.281,0.836-4.412,0.183l-36.453-21.046&#10;&#9;&#9;&#9;&#9;C302.586,336.526,302.728,335.385,304.034,334.631z" style="fill:#E27D26;"/>
			<path d="M394.992,303.014l4.353,2.513c0.259,0.149,0.226,0.41-0.072,0.582l0,0&#10;&#9;&#9;&#9;&#9;c-0.299,0.172-0.75,0.191-1.009,0.042l-4.354-2.514c-0.259-0.149-0.226-0.41,0.073-0.582l0,0&#10;&#9;&#9;&#9;&#9;C394.282,302.883,394.733,302.865,394.992,303.014z" style="fill:#E27D26;"/>
		</g>
		<g>
			<path d="M403.13,329.091L403.13,329.091c0,0.45,0.273,0.657,0.611,0.462l6.346-3.664&#10;&#9;&#9;&#9;&#9;c0.337-0.195,0.611-0.718,0.611-1.168l0,0c0-0.45-0.273-0.657-0.611-0.462l-6.346,3.664&#10;&#9;&#9;&#9;&#9;C403.404,328.118,403.13,328.641,403.13,329.091z" style="fill:#E27D26;"/>
			<path d="M393.46,334.674L393.46,334.674c0,0.45,0.274,0.657,0.611,0.462l6.346-3.664&#10;&#9;&#9;&#9;&#9;c0.338-0.195,0.611-0.717,0.611-1.168l0,0c0-0.45-0.273-0.657-0.611-0.462l-6.346,3.664&#10;&#9;&#9;&#9;&#9;C393.734,333.701,393.46,334.224,393.46,334.674z" style="fill:#E27D26;"/>
		</g>
		<g>
			<path d="M313.91,347.889L313.91,347.889c0,0.45,0.274,0.973,0.611,1.168l6.346,3.664&#10;&#9;&#9;&#9;&#9;c0.337,0.195,0.611-0.012,0.611-0.462l0,0c0-0.45-0.273-0.973-0.611-1.168l-6.346-3.664&#10;&#9;&#9;&#9;&#9;C314.184,347.233,313.91,347.44,313.91,347.889z" style="fill:#E27D26;"/>
		</g>
	</g>
	<g>
		<polygon points="317.144,318.739 318.794,317.793 320.008,318.541 318.05,319.685" style="fill:#6FA4F4;"/>
		<polygon points="324.949,317.362 326.731,316.331 327.561,316.93 325.348,317.77" style="fill:#6FA4F4;"/>
		<polygon points="343.555,341.565 345.195,340.626 344.965,340.192 343.023,340.828" style="fill:#6FA4F4;"/>
		<path d="M346.671,336.109v1.278c0,3.184-2.235,4.474-4.992,2.882l-4.721-2.726l-8.319-4.803l-6.107-3.526&#10;&#9;&#9;&#9;c-2.757-1.592-4.992-5.463-4.992-8.647l0,0c0-2.734,1.919-3.843,4.287-2.475c0.968,0.559,1.862,1.445,2.579,2.485&#10;&#9;&#9;&#9;c0.517-4.522,4.076-6.197,8.392-3.705c3.718,2.146,6.876,6.74,8.01,11.246c0.487,0.059,1.018,0.243,1.575,0.565&#10;&#9;&#9;&#9;C344.751,330.05,346.671,333.375,346.671,336.109z" style="fill:#6FA4F4;"/>
		<path d="M345.043,337.042v1.278c0,3.184-2.235,4.474-4.992,2.882l-4.721-2.726l-8.319-4.803l-6.107-3.526&#10;&#9;&#9;&#9;c-2.757-1.592-4.992-5.463-4.992-8.647l0,0c0-2.734,1.919-3.842,4.287-2.475c0.968,0.559,1.862,1.445,2.579,2.485&#10;&#9;&#9;&#9;c0.517-4.522,4.076-6.197,8.392-3.706c3.718,2.146,6.876,6.74,8.01,11.246c0.488,0.059,1.019,0.243,1.575,0.565&#10;&#9;&#9;&#9;C343.124,330.983,345.043,334.307,345.043,337.042z" style="fill:#3F6ECB;"/>
	</g>
	<g>
		<path d="M343.528,294.246c0-5.347-3.754-11.849-8.384-14.522c-2.312-1.335-4.406-1.463-5.923-0.59l0,0&#10;&#9;&#9;&#9;l-0.005,0.003l-0.001,0.001l-2.013,1.176l0.3,0.698c-0.476,0.94-0.743,2.134-0.743,3.554c0,5.347,3.754,11.849,8.385,14.522&#10;&#9;&#9;&#9;c1.134,0.655,2.215,1.017,3.201,1.116l0.555,0.736l2.17-1.263c0.002-0.001,0.003-0.002,0.005-0.003l0.037-0.021l-0.001-0.001&#10;&#9;&#9;&#9;C342.605,298.764,343.528,296.896,343.528,294.246z" style="fill:#E27D26;"/>
		<g>
			<path d="M324.722,285.754c0-5.347,3.754-7.514,8.385-4.841c4.63,2.674,8.384,9.175,8.384,14.522&#10;&#9;&#9;&#9;&#9;c0,5.347-3.754,7.514-8.384,4.841C328.476,297.603,324.722,291.102,324.722,285.754z" style="fill:#EAAA2F;"/>
			<path d="M330.501,289.414v-3.749c0-0.485,0.455-0.526,0.819-0.073l2.812,3.498l2.812,3.498&#10;&#9;&#9;&#9;&#9;c0.364,0.453,0.364,1.059,0,1.092l-2.812,0.251l-2.812,0.251c-0.364,0.033-0.819-0.533-0.819-1.019V289.414z" style="fill:#F5DB9D;"/>
		</g>
	</g>
	<g>
		<polygon points="359.99,278.393 361.133,277.699 360.839,277.163 359.707,277.892" style="fill:#FFFFFF;"/>
		<path d="M361.55,253.037v23.72c0,0.936-0.657,1.315-1.467,0.847l-13.974-8.068&#10;&#9;&#9;&#9;c-0.81-0.468-1.467-1.606-1.467-2.541v-16.726l7.521-4.345l7.921,4.573C360.894,250.963,361.55,252.101,361.55,253.037z" style="fill:#FFFFFF;"/>
		<path d="M360.421,253.723v23.72c0,0.936-0.657,1.315-1.467,0.847l-13.974-8.068&#10;&#9;&#9;&#9;c-0.81-0.468-1.467-1.606-1.467-2.541v-16.727l7.521-4.345l7.921,4.573C359.764,251.649,360.421,252.787,360.421,253.723z" style="fill:#EAAA2F;"/>
		<path d="M351.397,246.818v7.025c0,0.936-0.657,1.315-1.467,0.847l-6.057-3.497l7.159-4.585L351.397,246.818&#10;&#9;&#9;&#9;z" style="fill:#E27D26;"/>
		<path d="M351.034,246.611v6.99c0,0.936-0.657,1.315-1.467,0.847l-6.056-3.497L351.034,246.611z" style="fill:#F5DB9D;"/>
		
			<line y2="262.759" x2="357.906" y1="255.982" x1="346.169" style="fill:none;stroke:#F5DB9D;stroke-width:0.6006;stroke-linecap:round;stroke-miterlimit:10;"/>
		
			<line y2="265.556" x2="357.906" y1="258.779" x1="346.169" style="fill:none;stroke:#F5DB9D;stroke-width:0.6006;stroke-linecap:round;stroke-miterlimit:10;"/>
		
			<line y2="268.353" x2="357.906" y1="261.576" x1="346.169" style="fill:none;stroke:#F5DB9D;stroke-width:0.6006;stroke-linecap:round;stroke-miterlimit:10;"/>
		
			<line y2="271.149" x2="357.906" y1="264.373" x1="346.169" style="fill:none;stroke:#F5DB9D;stroke-width:0.6006;stroke-linecap:round;stroke-miterlimit:10;"/>
	</g>
	<g>
		<path d="M371.23,304.153v12.444c-0.323-0.387-0.684-0.723-1.075-0.988&#10;&#9;&#9;&#9;c-0.087-0.058-0.177-0.116-0.268-0.168c-0.035-0.023-0.074-0.042-0.11-0.058v2.033c-0.397-0.474-0.852-0.875-1.343-1.155&#10;&#9;&#9;&#9;c-0.855-0.494-1.691-0.565-2.356-0.19l0.487,0.536c-0.061,0.249-0.094,0.516-0.094,0.807c0,0.858,0.274,1.785,0.726,2.62&#10;&#9;&#9;&#9;c0.51,0.942,1.252,1.772,2.088,2.256c0.181,0.103,0.358,0.181,0.536,0.248l0.419,0.729l0.003,0.003l1.481-0.836v-0.01&#10;&#9;&#9;&#9;c0.629-0.397,1.004-1.117,1.004-2.085c0-0.042,0-0.148,0-0.148v-10.64l8.952,3.389v7.613c-0.313-0.374-0.665-0.703-1.039-0.962&#10;&#9;&#9;&#9;c-0.1-0.071-0.2-0.139-0.303-0.197c-0.035-0.019-0.074-0.042-0.11-0.058v2.036c-0.397-0.474-0.852-0.874-1.343-1.155&#10;&#9;&#9;&#9;c-0.865-0.5-1.707-0.565-2.375-0.181l0.5,0.552c-0.058,0.239-0.087,0.5-0.087,0.781c0,0.749,0.206,1.549,0.561,2.294&#10;&#9;&#9;&#9;c0.51,1.078,1.32,2.043,2.253,2.582c0.126,0.074,0.255,0.135,0.381,0.19l0.484,0.839v0.003l0.061-0.035l1.423-0.8v-0.007&#10;&#9;&#9;&#9;c0.01-0.007,0.019-0.01,0.029-0.016c0.668-0.384,1.062-1.133,1.062-2.133c0-0.039,0.003-0.139,0.003-0.139v-15.471L371.23,304.153&#10;&#9;&#9;&#9;z M380.231,310.785l-7.5-2.837v-1.62l8.952,3.388v1.617L380.231,310.785z" style="fill:#6FA4F4;"/>
		<path d="M371.23,305.522l-1.452-0.549v12.444c-0.397-0.474-0.852-0.875-1.343-1.155&#10;&#9;&#9;&#9;c-0.855-0.494-1.691-0.565-2.356-0.19c-0.006,0.003-0.016,0.01-0.023,0.013c-0.668,0.387-1.036,1.149-1.036,2.149&#10;&#9;&#9;&#9;c0,0.584,0.126,1.201,0.352,1.801c0.474,1.268,1.391,2.456,2.462,3.076c0.491,0.284,0.975,0.426,1.426,0.426&#10;&#9;&#9;&#9;c0.342,0,0.665-0.081,0.952-0.249c0.01-0.007,0.019-0.013,0.029-0.019c0.652-0.39,1.036-1.123,1.036-2.107&#10;&#9;&#9;&#9;c0-0.042,0-0.148,0-0.148v-10.64l1.452,0.549l7.5,2.84v7.613c-0.397-0.474-0.852-0.874-1.343-1.155&#10;&#9;&#9;&#9;c-0.865-0.5-1.707-0.565-2.375-0.181c0,0.003-0.003,0.003-0.003,0.003c-0.668,0.387-1.036,1.149-1.036,2.149&#10;&#9;&#9;&#9;c0,0.478,0.084,0.978,0.242,1.475c0.429,1.388,1.407,2.73,2.572,3.402c0.49,0.284,0.974,0.426,1.423,0.426&#10;&#9;&#9;&#9;c0.323,0,0.623-0.071,0.894-0.216c0.022-0.01,0.042-0.019,0.061-0.032c0.668-0.387,1.062-1.136,1.062-2.133&#10;&#9;&#9;&#9;c0-0.042,0.003-0.142,0.003-0.142v-15.471L371.23,305.522z M371.278,308.768v-1.62l1.452,0.549l7.5,2.84v1.617L371.278,308.768z" style="fill:#3F6ECB;"/>
		<polygon points="369.778,304.974 371.23,304.154 383.184,308.678 381.732,309.498" style="fill:#FFFFFF;"/>
		<path d="M369.778,317.417c-0.397-0.474-0.852-0.875-1.343-1.155c-0.855-0.494-1.691-0.565-2.356-0.19&#10;&#9;&#9;&#9;l1.381-0.778h0.003c0.016-0.01,0.029-0.019,0.045-0.029c0.639-0.371,1.443-0.326,2.269,0.12V317.417z" style="fill:#FFFFFF;"/>
		<path d="M380.231,319.337v2.036c-0.397-0.474-0.852-0.874-1.343-1.155c-0.865-0.5-1.707-0.565-2.375-0.181&#10;&#9;&#9;&#9;l1.381-0.778l0.007,0.003c0.019-0.013,0.039-0.029,0.061-0.042C378.601,318.85,379.404,318.895,380.231,319.337z" style="fill:#FFFFFF;"/>
	</g>
	<g>
		<g>
			<path d="M182.316,197.225l-40.465,23.363l-58.597-33.831l40.465-23.363&#10;&#9;&#9;&#9;&#9;c1.452-0.838,3.988-0.733,5.664,0.235l52.526,30.326C183.586,194.923,183.768,196.387,182.316,197.225z" style="fill:#3C69BB;"/>
		</g>
		<polygon points="141.693,217.523 141.636,204.878 180,182.728 180.056,195.374" style="fill:#F5DB9D;"/>
		<polygon points="83.267,186.757 83.21,174.111 141.807,207.942 141.864,220.588" style="fill:#6FA4F4;"/>
		<g>
			<path d="M182.316,184.633l-40.465,23.363l-58.597-33.831l40.465-23.362&#10;&#9;&#9;&#9;&#9;c1.452-0.838,3.988-0.733,5.664,0.235l52.526,30.326C183.586,182.331,183.768,183.795,182.316,184.633z" style="fill:#3C69BB;"/>
		</g>
	</g>
	<g>
		<g>
			<path d="M185.201,174.156l-40.465,23.363l-58.597-33.831l40.465-23.363&#10;&#9;&#9;&#9;&#9;c1.452-0.838,3.988-0.733,5.664,0.235l52.526,30.326C186.471,171.854,186.653,173.318,185.201,174.156z" style="fill:#EAAA2F;"/>
		</g>
		<polygon points="144.577,194.454 144.521,181.809 182.884,159.66 182.941,172.305" style="fill:#F5DB9D;"/>
		<polygon points="86.151,163.688 86.095,151.043 144.691,184.874 144.748,197.519" style="fill:#E27D26;"/>
		<g>
			<path d="M185.201,161.565l-40.465,23.362l-58.597-33.831l40.465-23.362&#10;&#9;&#9;&#9;&#9;c1.452-0.838,3.988-0.733,5.664,0.235l52.526,30.326C186.471,159.262,186.653,160.727,185.201,161.565z" style="fill:#EAAA2F;"/>
		</g>
	</g>
	<g>
		<path d="M132.111,120.939c-0.036,0.44-0.093,0.91,0.112,1.3c0.14,0.267,0.387,0.46,0.638,0.626&#10;&#9;&#9;&#9;c2.034,1.342,4.897,1.279,6.87-0.152c0.294-0.213,0.582-0.472,0.687-0.819c0.148-0.486-0.097-0.995-0.317-1.453&#10;&#9;&#9;&#9;c-1.553-3.235-2.154-6.831-2.737-10.372c0.032,0.221-2.231,1.553-2.5,1.739c-0.866,0.603-1.732,1.204-2.598,1.808&#10;&#9;&#9;&#9;c-0.565,0.394-1.158,0.749-1.115,1.512c0.046,0.818,0.54,1.649,0.72,2.45C132.12,118.678,132.204,119.815,132.111,120.939z" style="fill:#D29026;"/>
		<path d="M146.855,132.648c-1.223,0-1.599,0.9-1.199,1.511c-0.622,0.751-0.624,1.494-0.994,10.406&#10;&#9;&#9;&#9;c-0.081,1.981,0.092,4.054,0.121,5.476c0.008,0.412,0.088,1.597,0.45,1.919l-0.001,0.001c0.878,0.772,2.696,0.226,3.178,0.639&#10;&#9;&#9;&#9;c0.458,0.394,0.952,0.323,1.232,0.032c0.641-0.672,0.347-7.526,0.378-11.858c0.045-7.267,1.133-6.737-2.093-7.897&#10;&#9;&#9;&#9;C147.575,132.753,147.237,132.648,146.855,132.648" style="fill:#EBA76C;"/>
		<path d="M110.452,138.972c-1.243,0-2.119,0.585-2.498,1.834c-0.467,1.511,1.063,2.911,0.822,2.619&#10;&#9;&#9;&#9;c6.655,8.049,9.541,8.327,13.672,10.859c5.994,3.674,5.173,2.26,9.163,3.411c5.161,1.513,5.877,2.061,10.726,2.252&#10;&#9;&#9;&#9;c1.417,0.057,10.112,0.582,12.058-0.133c1.607-0.59,1.161-2.207,0.448-3.144c-0.314-0.414-0.958-1.055-0.893-0.988&#10;&#9;&#9;&#9;c-0.595-0.611-1.111-1.293-1.685-1.969c-1.194-1.4-4.337-3.963-6.488-4.991c-1.734-0.833-4.037-1.301-5.877-1.543l0.099,0.017&#10;&#9;&#9;&#9;c-1.877-0.26-5.578-0.467-7.471-0.069c-1.639-1.325-3.434-3.063-7.077-4.588C119.402,139.986,112.74,138.972,110.452,138.972" style="fill:#2F5483;"/>
		<path d="M110.136,138.84c-3.169,0-6.753,4.666-1.153,11.61c2.114,2.874,10.781,13.021,11.353,13.559&#10;&#9;&#9;&#9;c1.309,1.232,1.753,1.277,2.431,2.103c0.327,0.399,3.385,5.621,5.136,7.236c0.26,0.239,1.186,0.855,1.469,1.062&#10;&#9;&#9;&#9;c3.997,3.234,6.281,0.035,5.112-3.135c-0.816-2.205-1.889-2.311-3.512-6.143l0.002,0.007c-2.016-4.72-3.273-3.761-5.127-7.981&#10;&#9;&#9;&#9;l0.009,0.033c-2.025-4.908-2.879-7.137-6.642-11.939l0.032,0.046c-0.053-0.07-0.45-0.57-0.652-0.829l0.031,0.05&#10;&#9;&#9;&#9;c-0.734-0.952-3.12-3.476-3.626-3.946c-1.92-1.788-3.077-1.499-3.901-1.637C110.812,138.889,110.474,138.84,110.136,138.84" style="fill:#6190D5;"/>
		<path d="M147.764,152.937L147.764,152.937c-2.095,0.01-4.692,1.354-6.219,2.035l0.033-0.013l-2.738,1.242&#10;&#9;&#9;&#9;c-0.602,0.247-1.261,0.502-1.893,0.778l0.036-0.013c-0.004,0.002-2.038,0.946-2.034,0.946c-0.022,0.009-2.34,0.997-2.362,1.007&#10;&#9;&#9;&#9;l0.061-0.019c-0.064,0.023-1.081,0.46-1.115,0.476l0.029-0.01c-0.059,0.025-0.256,0.11-0.314,0.136l0.03-0.008&#10;&#9;&#9;&#9;c-3.41,1.484-4.957,1.265-6.686,1.756c-0.445,0.125-3.524,0.824-4.599,0.824c-0.292,0-0.743-0.003-1.208-0.18&#10;&#9;&#9;&#9;c-0.115-0.047-0.78-0.28-0.78-0.28c-1.715-0.81-2.665-0.519-2.665-0.519s-1.353,0.113-2.898,1.442&#10;&#9;&#9;&#9;c-1.278,1.103-1.685,1.088-2.455,1.617c-2.077,1.425-1.745,0.921-3.27,2.195c-1.349,1.125-2.363,1.674-2.444,2.816&#10;&#9;&#9;&#9;c-0.031,0.414,0.135,0.838,0.63,1.19c0.678,0.48,3.154,0.869,4.206,0.9c1.91,0.055,3.506-0.536,4.561-0.854&#10;&#9;&#9;&#9;c1.975-0.593,3.009-1.105,5.353-1.442c1.744-0.251,15.929-0.839,17.653-1.06c0.291-0.037,8.037-1.26,11.909-3.14&#10;&#9;&#9;&#9;c2.184-1.056,2.655-0.925,4.643-2.303c0.296-0.205,1.276-1.022,1.451-1.238c1.02-1.262,1.074-1.669,0.99-2.594&#10;&#9;&#9;&#9;C155.339,155.061,151.533,152.937,147.764,152.937 M131.288,159.483l0.149-0.056C131.436,159.428,131.288,159.483,131.288,159.483&#10;&#9;&#9;&#9; M105.847,169.072c0.002-0.004,0.006-0.009,0.006-0.009c0.107,0.046,0.219,0.087,0.337,0.124&#10;&#9;&#9;&#9;C106.071,169.151,105.957,169.113,105.847,169.072" style="fill:#96BDEF;"/>
		<g>
			<path d="M114.25,121.407l-5.921-0.496c-0.231-0.019-0.398,0.053-0.496,0.183l-0.004-0.003l-0.303,0.46&#10;&#9;&#9;&#9;&#9;c0,0,0.161,0.098,0.277,0.168c0.014,0.037,0.024,0.074,0.043,0.113l4.796,10.185c0.26,0.552,0.898,1.036,1.425,1.08l5.686,0.476&#10;&#9;&#9;&#9;&#9;l-0.004,0.008l0.46,0.255l0.309-0.468l-0.002-0.002c0.095-0.167,0.088-0.412-0.045-0.695l-4.796-10.185&#10;&#9;&#9;&#9;&#9;C115.415,121.935,114.777,121.451,114.25,121.407z" style="fill:#D29026;"/>
			<path d="M119.717,134.005l-5.921-0.496c-0.527-0.044-1.165-0.528-1.425-1.08l-4.796-10.186&#10;&#9;&#9;&#9;&#9;c-0.26-0.552-0.044-0.965,0.483-0.92l5.922,0.496c0.527,0.044,1.165,0.528,1.425,1.08l4.796,10.185&#10;&#9;&#9;&#9;&#9;C120.46,133.637,120.244,134.049,119.717,134.005z" style="fill:#2F5483;"/>
		</g>
		<path d="M114.984,124.955c-0.281,0-0.617,0.154-0.884,0.292c-0.324,0.168-0.506,0.488-0.729,0.791&#10;&#9;&#9;&#9;l0.029-0.031c-0.584,0.722-1.328,2.071-1.676,2.9c-0.812,1.941,0.657,6.104,1.287,7.193l-0.002,0.001&#10;&#9;&#9;&#9;c1.217,3.262,0.158,2.761,4.338,6.487c0.826,0.734,1.613,1.771,2.85,2.362c0.375,0.177,0.339,0.336,0.743,0.533&#10;&#9;&#9;&#9;c2.592,1.266,4.158-5.839,4.619-8.706c0.497-3.116,1.159-3.489,0.028-5.453c-0.469-0.817-0.849-3.311-0.983-4.251&#10;&#9;&#9;&#9;c-0.15-1.189,0.078-1.893-0.577-1.893c-0.952,0-1.277,3.178-1.335,4.122c-0.142,2.365-0.662,3.736-0.815,4.571&#10;&#9;&#9;&#9;c-0.214,1.2-0.749,4.275-1.447,5.329c-0.572-0.361-3.564-4.447-3.675-4.739c-0.001-0.003-0.129-0.336-0.132-0.336&#10;&#9;&#9;&#9;c0,0,0.071-1.169,0.071-1.171c0.056-3.749,0.002-1.657-0.061-4.057C116.588,127.167,116.738,124.955,114.984,124.955" style="fill:#EBA76C;"/>
		<path d="M128.203,115.896c-4.766,0-4.806,4.328-5.706,6.529l0.04-0.085&#10;&#9;&#9;&#9;c-0.483,1.132-0.841,2.991-1.028,3.642c-0.244,0.841-0.474,1.864,0.194,2.427c1.09,0.922,1.708-0.475,2.801,3.617&#10;&#9;&#9;&#9;c0.393,1.46,0.358,1.071,0.33,3.75c-0.015,1.452-0.029,2.228-0.278,4.312l0.008-0.025c-0.76,4.488-1.232,2.856,3.266,5.946&#10;&#9;&#9;&#9;c0.356,0.244,0.635,0.368,0.83,0.558c0.427,0.412,0.509,0.395,1.244,0.908c2.751,1.873,2.225,1.82,4.91,2.13&#10;&#9;&#9;&#9;c0.74,0.09,7.564,0.003,9.85-0.464c1.438-0.291,0.712-2.028,1.076-5.8c0.006-0.063,0.112-2.811,0.112-3.467&#10;&#9;&#9;&#9;c3.856,0.627,5.366,1.003,5.916,0.057c0.115-0.194,0.777-5.544,0.61-7.839c-0.039-0.543-0.461-3.065-0.414-2.773&#10;&#9;&#9;&#9;c-0.295-1.828-1.026-4.149-2.629-5.067c-0.325-0.185-1.196-0.489-1.028-0.427c-0.496-0.248-0.165-0.165-1.503-0.762&#10;&#9;&#9;&#9;c-1.691-0.752-2.019-0.524-3.205-1.382c-1.185-0.942-1.243-0.913-2.057-1.292c-0.291-0.138-0.89-0.607-1.599-0.607&#10;&#9;&#9;&#9;c-1.68,0-0.857,2.215-4.821,1.809c-1.335-0.231-2.036-0.966-2.26-2.332c0.713-0.751,0.144-1.907-0.932-2.255&#10;&#9;&#9;&#9;c-0.12-0.039-0.205-0.097-0.329-0.173C130.283,116.019,128.515,115.896,128.203,115.896" style="fill:#68ABFB;"/>
		<path d="M130.581,102.361c-0.676,0-1.57,0.17-2.705,1.048c-2.945,1.05-3.358,5.881-2.357,8.646&#10;&#9;&#9;&#9;c0.762,2.106,3.414,8.975,5.636,8.975c1.623,0,3.374-2.37,4.031-4.446c0.79-2.502,2.331-6.447,0.324-10.81&#10;&#9;&#9;&#9;c-0.471-1.032-2.356-3.061-3.727-3.31C131.422,102.399,130.886,102.361,130.581,102.361" style="fill:#EBA76C;"/>
		<path d="M132.007,97.764c-0.363,0-1.739,0.286-2.006,0.367c-2.379,0-2.403,0.893-4.007,2.492&#10;&#9;&#9;&#9;c-1.573,1.566-2.535,4.963-1.359,5.9c1.138,0.906,1.876,0.321,4.49-0.055l-0.071,0.006c0.446-0.062,0.556-0.12,1.056-0.12&#10;&#9;&#9;&#9;c2.039,0,3.872,1.449,4.341,4.317c0.147,0.9,0.152,2.612,0.138,3.472c-0.044,2.739,1.627,3.115,2.818,1.741&#10;&#9;&#9;&#9;c0.193-0.225,0.538-0.643,0.775-0.953l-0.024,0.028c2.406-3.265,3.491-10.368-0.423-14.621c-1.752-1.902-1.006-1.28-3.929-2.316&#10;&#9;&#9;&#9;c-0.529-0.187-1.176-0.238-1.74-0.256C132.047,97.764,132.027,97.764,132.007,97.764" style="fill:#2F5483;"/>
		<path d="M135.238,109.636c-0.376,0.041-0.676,0.314-0.925,0.611c-0.351,0.419-0.576,0.745-0.667,1.102&#10;&#9;&#9;&#9;c-0.104,0.405-0.25,0.916-0.114,1.179c0.217,0.421,0.391,0.077,0.251,0.506c-0.792,1.129,0.499,2.113,1.413,1.548&#10;&#9;&#9;&#9;c1.212-0.741,1.904-3.21,1.678-3.878C136.59,109.867,135.949,109.559,135.238,109.636 M136.893,111.364&#10;&#9;&#9;&#9;C136.871,111.504,136.867,111.525,136.893,111.364" style="fill:#EBA76C;"/>
	</g>
</g>
<g id="DESIGNED_BY_FREEPIK">
	<g>
		<g id="XMLID_319_">
			<g id="XMLID_338_">
				<path d="M260.104,465.465c-0.433,0.443-0.804,0.932-1.108,1.453l-0.465-0.241&#10;&#9;&#9;&#9;&#9;&#9;c-0.067-0.297-0.35-0.502-0.659-0.466c-0.331,0.039-0.567,0.339-0.529,0.67c0.039,0.331,0.339,0.567,0.67,0.528&#10;&#9;&#9;&#9;&#9;&#9;c0.065-0.007,0.127-0.025,0.184-0.052l0.451,0.234c-0.251,0.554-0.433,1.139-0.539,1.743l0.747,0.132&#10;&#9;&#9;&#9;&#9;&#9;c0.23-1.306,0.85-2.507,1.792-3.473L260.104,465.465z" style="fill:#222221;" id="XMLID_346_"/>
				<path d="M265.591,463.164c-0.171,0-0.341,0.006-0.509,0.017l-0.074-0.626&#10;&#9;&#9;&#9;&#9;&#9;c0.188-0.149,0.296-0.389,0.266-0.645c-0.046-0.393-0.402-0.674-0.795-0.628c-0.394,0.046-0.675,0.402-0.628,0.796&#10;&#9;&#9;&#9;&#9;&#9;c0.03,0.254,0.189,0.461,0.404,0.563l0.073,0.624c-0.714,0.116-1.402,0.332-2.06,0.646l0.327,0.685&#10;&#9;&#9;&#9;&#9;&#9;c0.935-0.447,1.941-0.674,2.995-0.674c0.497,0,0.993,0.053,1.476,0.158l0.16-0.741&#10;&#9;&#9;&#9;&#9;&#9;C266.692,463.222,266.142,463.164,265.591,463.164z" style="fill:#222221;" id="XMLID_345_"/>
				<path d="M272.194,465.711c0.331-0.04,0.566-0.341,0.525-0.672&#10;&#9;&#9;&#9;&#9;&#9;c-0.04-0.331-0.341-0.566-0.672-0.525c-0.31,0.038-0.535,0.304-0.53,0.608l-0.416,0.363c-0.418-0.43-0.89-0.813-1.407-1.14&#10;&#9;&#9;&#9;&#9;&#9;l-0.404,0.642c1.135,0.715,2.021,1.727,2.564,2.925l0.69-0.313c-0.251-0.554-0.567-1.071-0.942-1.545l0.402-0.351&#10;&#9;&#9;&#9;&#9;&#9;C272.065,465.715,272.128,465.719,272.194,465.711z" style="fill:#222221;" id="XMLID_344_"/>
				<path d="M265.044,473.372c-0.386,0.023-0.775,0.035-1.157,0.035&#10;&#9;&#9;&#9;&#9;&#9;c-0.88,0-1.733-0.061-2.479-0.18c-0.391-0.062-0.846-0.154-1.271-0.292c1.047,1.861,3.069,3.125,5.389,3.125&#10;&#9;&#9;&#9;&#9;&#9;c2.855,0,5.263-1.916,5.949-4.503c-0.682,0.449-1.505,0.825-2.458,1.122C267.838,473.047,266.463,473.287,265.044,473.372z" style="fill:#222221;" id="XMLID_343_"/>
				<path d="M265.591,464.68c-3.351,0-6.079,2.666-6.079,5.943&#10;&#9;&#9;&#9;&#9;&#9;c0,0.425,0.046,0.849,0.137,1.261c0.674,0.483,2.706,0.891,5.348,0.731c2.88-0.174,5.297-0.958,6.672-2.159&#10;&#9;&#9;&#9;&#9;&#9;c-0.005-0.194-0.021-0.39-0.045-0.581C271.244,466.914,268.65,464.68,265.591,464.68z M263.432,471.195&#10;&#9;&#9;&#9;&#9;&#9;c-1.02,0-1.85-0.83-1.85-1.85c0-1.021,0.83-1.851,1.85-1.851c1.02,0,1.85,0.83,1.85,1.851&#10;&#9;&#9;&#9;&#9;&#9;C265.282,470.365,264.452,471.195,263.432,471.195z M268.169,470.287c-0.75,0-1.36-0.61-1.36-1.36s0.61-1.36,1.36-1.36&#10;&#9;&#9;&#9;&#9;&#9;s1.36,0.61,1.36,1.36S268.919,470.287,268.169,470.287z" style="fill:#222221;" id="XMLID_339_"/>
			</g>
			<path d="M281.595,466.547c-0.295-0.116-0.806-0.31-1.383-0.238&#10;&#9;&#9;&#9;&#9;c-0.551,0.069-0.844,0.341-0.844,1.007v0.866h2.229v1.717h-2.229v5.455h-1.932v-5.455h-1.339v-1.717h1.339v-0.889&#10;&#9;&#9;&#9;&#9;c0-1.68,0.896-2.782,2.568-2.782c0.643,0,1.157,0.121,1.59,0.308V466.547z" style="fill:#222221;" id="XMLID_336_"/>
			<path d="M286.297,469.878c-0.177-0.029-0.357-0.046-0.525-0.046&#10;&#9;&#9;&#9;&#9;c-0.896,0-1.51,0.548-1.51,1.613v3.908h-1.933v-7.172h1.873v0.784c0.451-0.673,1.14-0.977,2.021-0.977&#10;&#9;&#9;&#9;&#9;c0.414,0,0.848,0.128,1.095,0.337L286.297,469.878z" style="fill:#222221;" id="XMLID_334_"/>
			<path d="M293.965,471.757c0,0.222-0.016,0.488-0.037,0.651h-5.085&#10;&#9;&#9;&#9;&#9;c0.207,1.036,0.933,1.487,1.843,1.487c0.622,0,1.295-0.252,1.813-0.689l1.133,1.243c-0.814,0.748-1.851,1.089-3.057,1.089&#10;&#9;&#9;&#9;&#9;c-2.198,0-3.724-1.496-3.724-3.753c0-2.258,1.48-3.797,3.627-3.797C292.543,467.99,293.958,469.522,293.965,471.757z&#10;&#9;&#9;&#9;&#9; M288.851,471.091h3.175c-0.178-0.918-0.732-1.437-1.562-1.437C289.554,469.655,289.021,470.203,288.851,471.091z" style="fill:#222221;" id="XMLID_331_"/>
			<path d="M301.619,471.757c0,0.222-0.016,0.488-0.037,0.651h-5.085&#10;&#9;&#9;&#9;&#9;c0.207,1.036,0.933,1.487,1.843,1.487c0.622,0,1.296-0.252,1.814-0.689l1.133,1.243c-0.815,0.748-1.851,1.089-3.058,1.089&#10;&#9;&#9;&#9;&#9;c-2.198,0-3.723-1.496-3.723-3.753c0-2.258,1.48-3.797,3.627-3.797C300.197,467.99,301.611,469.522,301.619,471.757z&#10;&#9;&#9;&#9;&#9; M296.504,471.091h3.175c-0.178-0.918-0.733-1.437-1.561-1.437C297.208,469.655,296.674,470.203,296.504,471.091z" style="fill:#222221;" id="XMLID_328_"/>
			<path d="M309.964,471.764c0,2.154-1.495,3.775-3.472,3.775&#10;&#9;&#9;&#9;&#9;c-0.962,0-1.644-0.378-2.109-0.933v3.708h-1.925v-10.133h1.888v0.792c0.467-0.585,1.154-0.984,2.139-0.984&#10;&#9;&#9;&#9;&#9;C308.469,467.99,309.964,469.611,309.964,471.764z M304.287,471.764c0,1.133,0.748,1.977,1.844,1.977&#10;&#9;&#9;&#9;&#9;c1.14,0,1.85-0.881,1.85-1.977c0-1.095-0.71-1.976-1.85-1.976C305.035,469.789,304.287,470.632,304.287,471.764z" style="fill:#222221;" id="XMLID_325_"/>
			<path d="M313.068,465.836c0,0.696-0.541,1.229-1.236,1.229&#10;&#9;&#9;&#9;&#9;c-0.696,0-1.229-0.533-1.229-1.229c0-0.695,0.532-1.243,1.229-1.243C312.527,464.592,313.068,465.14,313.068,465.836z&#10;&#9;&#9;&#9;&#9; M312.808,475.354h-1.932v-7.172h1.932V475.354z" style="fill:#222221;" id="XMLID_322_"/>
			<path d="M316.032,470.736l2.702-2.554h2.368l-3.478,3.375l3.501,3.797h-2.376&#10;&#9;&#9;&#9;&#9;l-2.717-2.901v2.901H314.1v-10.658h1.932V470.736z" style="fill:#222221;" id="XMLID_320_"/>
		</g>
		<g>
			<path d="M184.412,475.29v-1.055c-0.527,0.718-1.391,1.23-2.387,1.23c-1.846,0-3.149-1.406-3.149-3.706&#10;&#9;&#9;&#9;&#9;c0-2.256,1.289-3.721,3.149-3.721c0.952,0,1.816,0.469,2.387,1.245v-3.765h1.099v9.771H184.412z M184.412,473.371v-3.208&#10;&#9;&#9;&#9;&#9;c-0.395-0.615-1.245-1.143-2.124-1.143c-1.42,0-2.27,1.172-2.27,2.739c0,1.567,0.85,2.725,2.27,2.725&#10;&#9;&#9;&#9;&#9;C183.167,474.484,184.017,473.986,184.412,473.371z" style="fill:#222221;"/>
			<path d="M186.932,471.745c0-2.051,1.465-3.706,3.486-3.706c2.139,0,3.398,1.67,3.398,3.794v0.278h-5.727&#10;&#9;&#9;&#9;&#9;c0.088,1.333,1.025,2.446,2.549,2.446c0.806,0,1.626-0.322,2.182-0.894l0.527,0.718c-0.703,0.703-1.655,1.084-2.812,1.084&#10;&#9;&#9;&#9;&#9;C188.44,475.465,186.932,473.957,186.932,471.745z M190.403,468.947c-1.509,0-2.256,1.274-2.314,2.358h4.644&#10;&#9;&#9;&#9;&#9;C192.718,470.25,192.015,468.947,190.403,468.947z" style="fill:#222221;"/>
			<path d="M194.607,474.352l0.571-0.791c0.469,0.542,1.362,1.011,2.329,1.011c1.084,0,1.67-0.513,1.67-1.216&#10;&#9;&#9;&#9;&#9;c0-1.714-4.38-0.659-4.38-3.281c0-1.099,0.952-2.036,2.636-2.036c1.202,0,2.051,0.454,2.623,1.025l-0.513,0.762&#10;&#9;&#9;&#9;&#9;c-0.424-0.513-1.201-0.894-2.109-0.894c-0.966,0-1.567,0.483-1.567,1.113c0,1.553,4.379,0.527,4.379,3.281&#10;&#9;&#9;&#9;&#9;c0,1.187-0.952,2.139-2.783,2.139C196.306,475.465,195.325,475.114,194.607,474.352z" style="fill:#222221;"/>
			<path d="M201.477,466.471c0-0.41,0.337-0.747,0.732-0.747c0.41,0,0.747,0.337,0.747,0.747&#10;&#9;&#9;&#9;&#9;c0,0.41-0.337,0.732-0.747,0.732C201.814,467.204,201.477,466.881,201.477,466.471z M201.667,475.29v-7.075h1.099v7.075H201.667z" style="fill:#222221;"/>
			<path d="M204.582,477.106l0.556-0.82c0.586,0.703,1.289,0.967,2.3,0.967c1.172,0,2.271-0.571,2.271-2.124&#10;&#9;&#9;&#9;&#9;v-1.011c-0.513,0.718-1.377,1.26-2.373,1.26c-1.846,0-3.149-1.377-3.149-3.662c0-2.271,1.289-3.677,3.149-3.677&#10;&#9;&#9;&#9;&#9;c0.952,0,1.802,0.469,2.373,1.245v-1.069h1.099v6.87c0,2.344-1.641,3.076-3.369,3.076&#10;&#9;&#9;&#9;&#9;C206.237,478.161,205.416,477.925,204.582,477.106z M209.708,473.253v-3.091c-0.381-0.615-1.23-1.143-2.109-1.143&#10;&#9;&#9;&#9;&#9;c-1.421,0-2.27,1.128-2.27,2.695c0,1.553,0.849,2.695,2.27,2.695C208.478,474.411,209.328,473.869,209.708,473.253z" style="fill:#222221;"/>
			<path d="M217.413,475.29v-4.629c0-1.245-0.63-1.641-1.582-1.641c-0.864,0-1.685,0.527-2.094,1.099v5.171&#10;&#9;&#9;&#9;&#9;h-1.099v-7.075h1.099v1.025c0.497-0.586,1.464-1.201,2.519-1.201c1.479,0,2.256,0.747,2.256,2.285v4.966H217.413z" style="fill:#222221;"/>
			<path d="M219.932,471.745c0-2.051,1.465-3.706,3.486-3.706c2.139,0,3.398,1.67,3.398,3.794v0.278h-5.727&#10;&#9;&#9;&#9;&#9;c0.088,1.333,1.025,2.446,2.548,2.446c0.806,0,1.626-0.322,2.183-0.894l0.527,0.718c-0.703,0.703-1.655,1.084-2.813,1.084&#10;&#9;&#9;&#9;&#9;C221.441,475.465,219.932,473.957,219.932,471.745z M223.404,468.947c-1.509,0-2.256,1.274-2.314,2.358h4.643&#10;&#9;&#9;&#9;&#9;C225.718,470.25,225.015,468.947,223.404,468.947z" style="fill:#222221;"/>
			<path d="M233.35,475.29v-1.055c-0.527,0.718-1.392,1.23-2.388,1.23c-1.845,0-3.149-1.406-3.149-3.706&#10;&#9;&#9;&#9;&#9;c0-2.256,1.289-3.721,3.149-3.721c0.952,0,1.817,0.469,2.388,1.245v-3.765h1.098v9.771H233.35z M233.35,473.371v-3.208&#10;&#9;&#9;&#9;&#9;c-0.396-0.615-1.245-1.143-2.124-1.143c-1.421,0-2.27,1.172-2.27,2.739c0,1.567,0.85,2.725,2.27,2.725&#10;&#9;&#9;&#9;&#9;C232.105,474.484,232.954,473.986,233.35,473.371z" style="fill:#222221;"/>
			<path d="M239.692,475.29v-9.771h1.099v3.765c0.571-0.776,1.421-1.245,2.388-1.245&#10;&#9;&#9;&#9;&#9;c1.845,0,3.149,1.465,3.149,3.721c0,2.3-1.304,3.706-3.149,3.706c-0.996,0-1.86-0.513-2.388-1.23v1.055H239.692z M242.9,474.484&#10;&#9;&#9;&#9;&#9;c1.436,0,2.285-1.157,2.285-2.725c0-1.567-0.85-2.739-2.285-2.739c-0.864,0-1.729,0.527-2.109,1.143v3.208&#10;&#9;&#9;&#9;&#9;C241.171,473.986,242.036,474.484,242.9,474.484z" style="fill:#222221;"/>
			<path d="M247.528,477.062c0.161,0.073,0.425,0.117,0.601,0.117c0.483,0,0.806-0.161,1.055-0.747&#10;&#9;&#9;&#9;&#9;l0.469-1.069l-2.959-7.148h1.187l2.358,5.801l2.344-5.801h1.2l-3.544,8.511c-0.425,1.024-1.143,1.421-2.08,1.436&#10;&#9;&#9;&#9;&#9;c-0.234,0-0.6-0.044-0.806-0.104L247.528,477.062z" style="fill:#222221;"/>
		</g>
	</g>
</g>
</svg>